<svg width="32" height="33" viewBox="0 0 32 33" fill="none" xmlns="http://www.w3.org/2000/svg">
<path opacity="0.2" d="M28 8.5V22.5C28 23.0304 27.7893 23.5391 27.4142 23.9142C27.0391 24.2893 26.5304 24.5 26 24.5H19.4287L16 20.5L12.5712 24.5H6C5.46957 24.5 4.96086 24.2893 4.58579 23.9142C4.21071 23.5391 4 23.0304 4 22.5V8.5C4 7.96957 4.21071 7.46086 4.58579 7.08579C4.96086 6.71071 5.46957 6.5 6 6.5H26C26.5304 6.5 27.0391 6.71071 27.4142 7.08579C27.7893 7.46086 28 7.96957 28 8.5Z" fill="black"/>
<path d="M16.76 19.8487C16.6661 19.7392 16.5496 19.6512 16.4186 19.5909C16.2875 19.5306 16.1449 19.4994 16.0006 19.4994C15.8563 19.4994 15.7138 19.5306 15.5827 19.5909C15.4516 19.6512 15.3351 19.7392 15.2413 19.8487L9.24125 26.8487C9.11667 26.9939 9.03634 27.1718 9.00979 27.3612C8.98324 27.5506 9.01158 27.7437 9.09145 27.9175C9.17132 28.0913 9.29937 28.2386 9.4604 28.3419C9.62144 28.4451 9.80871 28.5 10 28.5H22C22.1913 28.5 22.3786 28.4451 22.5396 28.3419C22.7006 28.2386 22.8287 28.0913 22.9086 27.9175C22.9884 27.7437 23.0168 27.5506 22.9902 27.3612C22.9637 27.1718 22.8833 26.9939 22.7588 26.8487L16.76 19.8487ZM12.1737 26.5L16 22.0362L19.8263 26.5H12.1737ZM29 8.5V22.5C29 23.2956 28.6839 24.0587 28.1213 24.6213C27.5587 25.1839 26.7956 25.5 26 25.5H25C24.7348 25.5 24.4804 25.3946 24.2929 25.2071C24.1054 25.0196 24 24.7652 24 24.5C24 24.2348 24.1054 23.9804 24.2929 23.7929C24.4804 23.6054 24.7348 23.5 25 23.5H26C26.2652 23.5 26.5196 23.3946 26.7071 23.2071C26.8946 23.0196 27 22.7652 27 22.5V8.5C27 8.23478 26.8946 7.98043 26.7071 7.79289C26.5196 7.60536 26.2652 7.5 26 7.5H6C5.73478 7.5 5.48043 7.60536 5.29289 7.79289C5.10536 7.98043 5 8.23478 5 8.5V22.5C5 22.7652 5.10536 23.0196 5.29289 23.2071C5.48043 23.3946 5.73478 23.5 6 23.5H7C7.26522 23.5 7.51957 23.6054 7.70711 23.7929C7.89464 23.9804 8 24.2348 8 24.5C8 24.7652 7.89464 25.0196 7.70711 25.2071C7.51957 25.3946 7.26522 25.5 7 25.5H6C5.20435 25.5 4.44129 25.1839 3.87868 24.6213C3.31607 24.0587 3 23.2956 3 22.5V8.5C3 7.70435 3.31607 6.94129 3.87868 6.37868C4.44129 5.81607 5.20435 5.5 6 5.5H26C26.7956 5.5 27.5587 5.81607 28.1213 6.37868C28.6839 6.94129 29 7.70435 29 8.5Z" fill="#E6C536"/>
</svg>
