<svg width="100" height="101" viewBox="0 0 100 101" fill="none" xmlns="http://www.w3.org/2000/svg">
<path opacity="0.2" d="M40.625 47.0366C40.625 45.1824 41.1748 43.3699 42.205 41.8282C43.2351 40.2864 44.6993 39.0848 46.4124 38.3753C48.1254 37.6657 50.0104 37.48 51.829 37.8418C53.6476 38.2035 55.318 39.0964 56.6291 40.4075C57.9403 41.7186 58.8331 43.3891 59.1949 45.2077C59.5566 47.0262 59.371 48.9112 58.6614 50.6243C57.9518 52.3373 56.7502 53.8015 55.2085 54.8317C53.6668 55.8618 51.8542 56.4116 50 56.4116C47.5136 56.4116 45.129 55.4239 43.3709 53.6658C41.6127 51.9076 40.625 49.523 40.625 47.0366ZM56.1524 56.4116H43.8477C42.8916 56.402 41.9459 56.6111 41.083 57.0229C40.2201 57.4347 39.4627 58.0382 38.8687 58.7875C38.2747 59.5368 37.8598 60.4119 37.6558 61.346C37.4518 62.2802 37.4639 63.2486 37.6914 64.1773L42.4531 82.9273C42.8073 84.2883 43.6048 85.4925 44.7196 86.3499C45.8344 87.2072 47.203 87.6688 48.6094 87.6616H51.3906C52.797 87.6688 54.1656 87.2072 55.2804 86.3499C56.3953 85.4925 57.1927 84.2883 57.5469 82.9273L62.3086 64.1773C62.5361 63.2486 62.5483 62.2802 62.3442 61.346C62.1402 60.4119 61.7253 59.5368 61.1313 58.7875C60.5374 58.0382 59.78 57.4347 58.917 57.0229C58.0541 56.6111 57.1085 56.402 56.1524 56.4116Z" fill="black"/>
<path d="M60.2344 54.1968C61.5477 52.3239 62.322 50.1265 62.4728 47.844C62.6236 45.5615 62.1452 43.2813 61.0897 41.2519C60.0341 39.2225 58.4419 37.5217 56.4865 36.3346C54.5311 35.1476 52.2875 34.5199 50 34.5199C47.7125 34.5199 45.4689 35.1476 43.5135 36.3346C41.5581 37.5217 39.9659 39.2225 38.9104 41.2519C37.8548 43.2813 37.3764 45.5615 37.5272 47.844C37.678 50.1265 38.4523 52.3239 39.7656 54.1968C38.4265 54.8275 37.2544 55.7642 36.3438 56.9312C35.469 58.0473 34.8626 59.3496 34.5713 60.7374C34.2801 62.1252 34.3118 63.5615 34.6641 64.9351L39.4219 83.6851C39.9438 85.7228 41.1311 87.528 42.7954 88.8145C44.4597 90.1009 46.5059 90.795 48.6094 90.7866H51.3906C53.4926 90.7957 55.5375 90.1033 57.2016 88.8191C58.8658 87.5349 60.054 85.7324 60.5781 83.6968L65.3359 64.9468C65.6882 63.5732 65.72 62.137 65.4287 60.7491C65.1375 59.3613 64.531 58.059 63.6563 56.9429C62.747 55.7716 61.5747 54.8309 60.2344 54.1968ZM50 40.7866C51.2361 40.7866 52.4445 41.1532 53.4723 41.8399C54.5001 42.5267 55.3012 43.5028 55.7743 44.6449C56.2473 45.7869 56.3711 47.0436 56.1299 48.2559C55.8888 49.4683 55.2935 50.582 54.4194 51.456C53.5453 52.3301 52.4317 52.9254 51.2193 53.1665C50.0069 53.4077 48.7503 53.2839 47.6082 52.8109C46.4662 52.3378 45.4901 51.5368 44.8033 50.5089C44.1166 49.4811 43.75 48.2728 43.75 47.0366C43.75 45.379 44.4085 43.7893 45.5806 42.6172C46.7527 41.4451 48.3424 40.7866 50 40.7866ZM59.2774 63.4077L54.5195 82.1577C54.3378 82.8456 53.9317 83.4531 53.3657 83.884C52.7996 84.3149 52.1059 84.5446 51.3945 84.5366H48.6133C47.9019 84.5446 47.2082 84.3149 46.6422 83.884C46.0761 83.4531 45.67 82.8456 45.4883 82.1577L40.7305 63.4077C40.6131 62.9565 40.6022 62.4842 40.6984 62.028C40.7947 61.5718 40.9955 61.1442 41.2852 60.7788C41.5896 60.3885 41.9798 60.0734 42.4255 59.858C42.8712 59.6426 43.3605 59.5326 43.8555 59.5366H56.1602C56.6552 59.5326 57.1445 59.6426 57.5902 59.858C58.0359 60.0734 58.426 60.3885 58.7305 60.7788C59.0188 61.1448 59.2182 61.5728 59.3131 62.029C59.408 62.4851 59.3958 62.9571 59.2774 63.4077ZM28.125 50.1616C28.1206 52.141 28.3834 54.1119 28.9063 56.021C29.1077 56.8125 28.9912 57.6514 28.5818 58.3581C28.1724 59.0648 27.5027 59.5831 26.7159 59.8022C25.9291 60.0212 25.0878 59.9235 24.3721 59.53C23.6565 59.1365 23.1233 58.4785 22.8867 57.6968C21.7255 53.519 21.5459 49.1293 22.3621 44.8707C23.1783 40.612 24.9682 36.5998 27.5918 33.1474C30.2154 29.695 33.6018 26.8961 37.4863 24.9692C41.3708 23.0423 45.6482 22.0397 49.9844 22.0397C54.3205 22.0397 58.598 23.0423 62.4825 24.9692C66.367 26.8961 69.7533 29.695 72.377 33.1474C75.0006 36.5998 76.7904 40.612 77.6066 44.8707C78.4228 49.1293 78.2433 53.519 77.082 57.6968C76.7994 58.4178 76.2592 59.0082 75.566 59.3535C74.8729 59.6988 74.0762 59.7745 73.3304 59.5658C72.5846 59.3571 71.9429 58.8789 71.5297 58.224C71.1164 57.569 70.9611 56.784 71.0938 56.021C71.9192 53.0155 72.0929 49.8683 71.6032 46.7903C71.1134 43.7122 69.9716 40.7743 68.2541 38.1734C66.5366 35.5725 64.2832 33.3687 61.6447 31.7095C59.0063 30.0504 56.0437 28.9742 52.9555 28.553C49.8673 28.1319 46.7248 28.3756 43.7384 29.2678C40.752 30.1599 37.9908 31.6799 35.6396 33.726C33.2885 35.7721 31.4017 38.297 30.1057 41.1315C28.8097 43.9661 28.1344 47.0449 28.125 50.1616ZM90.625 50.1616C90.6287 56.8407 88.9843 63.4174 85.8376 69.3088C82.6909 75.2002 78.1392 80.2241 72.586 83.9351C71.897 84.3961 71.0531 84.5646 70.24 84.4034C69.4268 84.2422 68.711 83.7646 68.25 83.0757C67.789 82.3867 67.6205 81.5429 67.7817 80.7297C67.9429 79.9166 68.4204 79.2008 69.1094 78.7398C75.2385 74.6408 79.8872 68.6797 82.3691 61.7365C84.851 54.7933 85.0346 47.236 82.8928 40.1805C80.751 33.125 76.3972 26.9452 70.4744 22.5534C64.5515 18.1617 57.3735 15.7908 50 15.7908C42.6266 15.7908 35.4485 18.1617 29.5257 22.5534C23.6028 26.9452 19.2491 33.125 17.1072 40.1805C14.9654 47.236 15.149 54.7933 17.6309 61.7365C20.1128 68.6797 24.7615 74.6408 30.8906 78.7398C31.5796 79.2008 32.0572 79.9166 32.2183 80.7297C32.3795 81.5429 32.211 82.3867 31.75 83.0757C31.289 83.7646 30.5732 84.2422 29.76 84.4034C28.9469 84.5646 28.103 84.3961 27.4141 83.9351C21.5811 80.0336 16.8582 74.6878 13.7056 68.4184C10.5529 62.149 9.07802 55.1698 9.42458 48.1609C9.77114 41.1521 11.9273 34.3525 15.6831 28.4246C19.4389 22.4968 24.6661 17.643 30.8555 14.336C37.0449 11.029 43.9853 9.38171 51.0007 9.55456C58.016 9.72741 64.8669 11.7145 70.8859 15.3223C76.9049 18.9301 81.8868 24.0355 85.3461 30.1411C88.8053 36.2466 90.624 43.1442 90.625 50.1616Z" fill="#FAFF00"/>
</svg>
