<svg width="100" height="101" viewBox="0 0 100 101" fill="none" xmlns="http://www.w3.org/2000/svg">
<path opacity="0.2" d="M87.5 22.0366V78.2866C87.5 79.1154 87.1708 79.9103 86.5847 80.4963C85.9987 81.0824 85.2038 81.4116 84.375 81.4116H15.625C14.7962 81.4116 14.0013 81.0824 13.4153 80.4963C12.8292 79.9103 12.5 79.1154 12.5 78.2866V22.0366C12.5 21.2078 12.8292 20.413 13.4153 19.8269C14.0013 19.2409 14.7962 18.9116 15.625 18.9116H84.375C85.2038 18.9116 85.9987 19.2409 86.5847 19.8269C87.1708 20.413 87.5 21.2078 87.5 22.0366Z" fill="black"/>
<path d="M84.375 15.7866H15.625C13.9674 15.7866 12.3777 16.4451 11.2056 17.6172C10.0335 18.7893 9.375 20.379 9.375 22.0366V78.2866C9.375 79.9442 10.0335 81.5339 11.2056 82.706C12.3777 83.8781 13.9674 84.5366 15.625 84.5366H84.375C86.0326 84.5366 87.6223 83.8781 88.7944 82.706C89.9665 81.5339 90.625 79.9442 90.625 78.2866V22.0366C90.625 20.379 89.9665 18.7893 88.7944 17.6172C87.6223 16.4451 86.0326 15.7866 84.375 15.7866ZM84.375 78.2866H15.625V22.0366H84.375V78.2866ZM31.25 32.9741C31.25 33.9012 30.9751 34.8075 30.46 35.5784C29.9449 36.3492 29.2129 36.95 28.3563 37.3048C27.4998 37.6596 26.5573 37.7524 25.648 37.5716C24.7387 37.3907 23.9035 36.9442 23.2479 36.2887C22.5924 35.6331 22.1459 34.7979 21.9651 33.8886C21.7842 32.9793 21.877 32.0368 22.2318 31.1803C22.5866 30.3238 23.1874 29.5917 23.9583 29.0766C24.7291 28.5615 25.6354 28.2866 26.5625 28.2866C27.8057 28.2866 28.998 28.7805 29.8771 29.6596C30.7561 30.5386 31.25 31.7309 31.25 32.9741ZM46.875 32.9741C46.875 33.9012 46.6001 34.8075 46.085 35.5784C45.5699 36.3492 44.8379 36.95 43.9813 37.3048C43.1248 37.6596 42.1823 37.7524 41.273 37.5716C40.3637 37.3907 39.5285 36.9442 38.8729 36.2887C38.2174 35.6331 37.7709 34.7979 37.5901 33.8886C37.4092 32.9793 37.502 32.0368 37.8568 31.1803C38.2116 30.3238 38.8124 29.5917 39.5833 29.0766C40.3541 28.5615 41.2604 28.2866 42.1875 28.2866C43.4307 28.2866 44.623 28.7805 45.5021 29.6596C46.3811 30.5386 46.875 31.7309 46.875 32.9741Z" fill="#ED9B91"/>
</svg>
