<svg width="32" height="33" viewBox="0 0 32 33" fill="none" xmlns="http://www.w3.org/2000/svg">
<path opacity="0.2" d="M27 12.5V24.5C27 24.7652 26.8946 25.0196 26.7071 25.2071C26.5196 25.3946 26.2652 25.5 26 25.5H6C5.73478 25.5 5.48043 25.3946 5.29289 25.2071C5.10536 25.0196 5 24.7652 5 24.5V12.5H27Z" fill="black"/>
<path d="M28 6.5H4C3.46957 6.5 2.96086 6.71071 2.58579 7.08579C2.21071 7.46086 2 7.96957 2 8.5V11.5C2 12.0304 2.21071 12.5391 2.58579 12.9142C2.96086 13.2893 3.46957 13.5 4 13.5V24.5C4 25.0304 4.21071 25.5391 4.58579 25.9142C4.96086 26.2893 5.46957 26.5 6 26.5H26C26.5304 26.5 27.0391 26.2893 27.4142 25.9142C27.7893 25.5391 28 25.0304 28 24.5V13.5C28.5304 13.5 29.0391 13.2893 29.4142 12.9142C29.7893 12.5391 30 12.0304 30 11.5V8.5C30 7.96957 29.7893 7.46086 29.4142 7.08579C29.0391 6.71071 28.5304 6.5 28 6.5ZM26 24.5H6V13.5H26V24.5ZM28 11.5H4V8.5H28V11.5ZM12 17.5C12 17.2348 12.1054 16.9804 12.2929 16.7929C12.4804 16.6054 12.7348 16.5 13 16.5H19C19.2652 16.5 19.5196 16.6054 19.7071 16.7929C19.8946 16.9804 20 17.2348 20 17.5C20 17.7652 19.8946 18.0196 19.7071 18.2071C19.5196 18.3946 19.2652 18.5 19 18.5H13C12.7348 18.5 12.4804 18.3946 12.2929 18.2071C12.1054 18.0196 12 17.7652 12 17.5Z" fill="#4AAF50"/>
</svg>
