<svg width="100" height="101" viewBox="0 0 100 101" fill="none" xmlns="http://www.w3.org/2000/svg">
<path opacity="0.2" d="M90.625 40.7866V78.2866H31.25V65.7866H65.625V40.7866H90.625Z" fill="black"/>
<path d="M21.875 53.2866C21.875 54.1154 21.5458 54.9103 20.9597 55.4963C20.3737 56.0824 19.5788 56.4116 18.75 56.4116H9.375C8.5462 56.4116 7.75134 56.0824 7.16529 55.4963C6.57924 54.9103 6.25 54.1154 6.25 53.2866C6.25 52.4578 6.57924 51.663 7.16529 51.0769C7.75134 50.4909 8.5462 50.1616 9.375 50.1616H12.5V25.1616H9.375C8.5462 25.1616 7.75134 24.8324 7.16529 24.2463C6.57924 23.6603 6.25 22.8654 6.25 22.0366C6.25 21.2078 6.57924 20.413 7.16529 19.8269C7.75134 19.2409 8.5462 18.9116 9.375 18.9116H15.625C16.154 18.9111 16.6745 19.0448 17.1377 19.3003C17.601 19.5558 17.9917 19.9248 18.2734 20.3726L31.25 41.1421L44.2266 20.3804C44.5073 19.9311 44.8977 19.5607 45.361 19.3037C45.8243 19.0468 46.3452 18.9119 46.875 18.9116H53.125C53.9538 18.9116 54.7487 19.2409 55.3347 19.8269C55.9208 20.413 56.25 21.2078 56.25 22.0366C56.25 22.8654 55.9208 23.6603 55.3347 24.2463C54.7487 24.8324 53.9538 25.1616 53.125 25.1616H50V50.1616H53.125C53.9538 50.1616 54.7487 50.4909 55.3347 51.0769C55.9208 51.663 56.25 52.4578 56.25 53.2866C56.25 54.1154 55.9208 54.9103 55.3347 55.4963C54.7487 56.0824 53.9538 56.4116 53.125 56.4116H43.75C42.9212 56.4116 42.1263 56.0824 41.5403 55.4963C40.9542 54.9103 40.625 54.1154 40.625 53.2866C40.625 52.4578 40.9542 51.663 41.5403 51.0769C42.1263 50.4909 42.9212 50.1616 43.75 50.1616V32.9312L33.8984 48.6929C33.6174 49.1416 33.2269 49.5116 32.7636 49.7681C32.3004 50.0246 31.7795 50.1591 31.25 50.1591C30.7205 50.1591 30.1996 50.0246 29.7364 49.7681C29.2731 49.5116 28.8826 49.1416 28.6016 48.6929L18.75 32.9312V50.1616C19.5788 50.1616 20.3737 50.4909 20.9597 51.0769C21.5458 51.663 21.875 52.4578 21.875 53.2866ZM65.625 43.9116H90.625C91.4538 43.9116 92.2487 43.5824 92.8347 42.9963C93.4208 42.4103 93.75 41.6154 93.75 40.7866C93.75 39.9578 93.4208 39.163 92.8347 38.5769C92.2487 37.9909 91.4538 37.6616 90.625 37.6616H65.625C64.7962 37.6616 64.0013 37.9909 63.4153 38.5769C62.8292 39.163 62.5 39.9578 62.5 40.7866C62.5 41.6154 62.8292 42.4103 63.4153 42.9963C64.0013 43.5824 64.7962 43.9116 65.625 43.9116ZM90.625 50.1616H65.625C64.7962 50.1616 64.0013 50.4909 63.4153 51.0769C62.8292 51.663 62.5 52.4578 62.5 53.2866C62.5 54.1154 62.8292 54.9103 63.4153 55.4963C64.0013 56.0824 64.7962 56.4116 65.625 56.4116H90.625C91.4538 56.4116 92.2487 56.0824 92.8347 55.4963C93.4208 54.9103 93.75 54.1154 93.75 53.2866C93.75 52.4578 93.4208 51.663 92.8347 51.0769C92.2487 50.4909 91.4538 50.1616 90.625 50.1616ZM90.625 62.6616H31.25C30.4212 62.6616 29.6263 62.9909 29.0403 63.5769C28.4542 64.163 28.125 64.9578 28.125 65.7866C28.125 66.6154 28.4542 67.4103 29.0403 67.9963C29.6263 68.5824 30.4212 68.9116 31.25 68.9116H90.625C91.4538 68.9116 92.2487 68.5824 92.8347 67.9963C93.4208 67.4103 93.75 66.6154 93.75 65.7866C93.75 64.9578 93.4208 64.163 92.8347 63.5769C92.2487 62.9909 91.4538 62.6616 90.625 62.6616ZM90.625 75.1616H31.25C30.4212 75.1616 29.6263 75.4909 29.0403 76.0769C28.4542 76.663 28.125 77.4578 28.125 78.2866C28.125 79.1154 28.4542 79.9103 29.0403 80.4963C29.6263 81.0824 30.4212 81.4116 31.25 81.4116H90.625C91.4538 81.4116 92.2487 81.0824 92.8347 80.4963C93.4208 79.9103 93.75 79.1154 93.75 78.2866C93.75 77.4578 93.4208 76.663 92.8347 76.0769C92.2487 75.4909 91.4538 75.1616 90.625 75.1616Z" fill="url(#paint0_linear_2808_3254)"/>
<defs>
<linearGradient id="paint0_linear_2808_3254" x1="-95.1522" y1="60.256" x2="-79.007" y2="-17.1308" gradientUnits="userSpaceOnUse">
<stop stop-color="#C53232"/>
<stop offset="1" stop-color="#7C36DD"/>
</linearGradient>
</defs>
</svg>
