<svg width="100" height="101" viewBox="0 0 100 101" fill="none" xmlns="http://www.w3.org/2000/svg">
<g clip-path="url(#clip0_2808_3189)">
<path opacity="0.2" d="M34.375 69.4116C32.8298 69.4116 31.3194 68.9534 30.0346 68.095C28.7499 67.2365 27.7485 66.0164 27.1572 64.5888C26.5659 63.1613 26.4112 61.5905 26.7126 60.075C27.0141 58.5595 27.7581 57.1674 28.8507 56.0748C29.9433 54.9823 31.3354 54.2382 32.8509 53.9367C34.3663 53.6353 35.9372 53.79 37.3647 54.3813C38.7923 54.9726 40.0124 55.974 40.8709 57.2587C41.7293 58.5435 42.1875 60.054 42.1875 61.5991C42.1875 63.6711 41.3644 65.6583 39.8993 67.1234C38.4341 68.5885 36.447 69.4116 34.375 69.4116ZM59.375 50.6616V60.0366C59.375 66.667 56.7411 73.0259 52.0527 77.7143C47.3643 82.4027 41.0054 85.0366 34.375 85.0366H50C56.6304 85.0366 62.9893 82.4027 67.6777 77.7143C72.3661 73.0259 75 66.667 75 60.0366V50.6616H59.375Z" fill="black"/>
<path d="M34.375 50.6617C32.2118 50.6617 30.0971 51.3032 28.2985 52.505C26.4998 53.7069 25.0979 55.4151 24.2701 57.4136C23.4423 59.4122 23.2257 61.6114 23.6477 63.733C24.0697 65.8547 25.1114 67.8036 26.641 69.3332C28.1707 70.8628 30.1196 71.9045 32.2412 72.3266C34.3629 72.7486 36.5621 72.532 38.5606 71.7042C40.5592 70.8763 42.2674 69.4744 43.4692 67.6758C44.671 65.8771 45.3125 63.7625 45.3125 61.5992C45.3125 58.6984 44.1602 55.9164 42.109 53.8652C40.0578 51.8141 37.2758 50.6617 34.375 50.6617ZM34.375 66.2867C33.4479 66.2867 32.5416 66.0118 31.7708 65.4967C30.9999 64.9817 30.3991 64.2496 30.0443 63.393C29.6895 62.5365 29.5967 61.594 29.7776 60.6847C29.9585 59.7755 30.4049 58.9402 31.0605 58.2847C31.716 57.6291 32.5512 57.1827 33.4605 57.0018C34.3698 56.8209 35.3123 56.9138 36.1688 57.2685C37.0254 57.6233 37.7575 58.2241 38.2725 58.995C38.7876 59.7658 39.0625 60.6721 39.0625 61.5992C39.0625 62.8424 38.5687 64.0347 37.6896 64.9138C36.8105 65.7929 35.6182 66.2867 34.375 66.2867ZM96.875 47.5367H87.3828C86.5851 37.0561 81.7563 27.2926 73.911 20.2976C66.0657 13.3025 55.8145 9.62045 45.3114 10.025C34.8083 10.4296 24.8707 14.8892 17.5867 22.467C10.3027 30.0448 6.2392 40.1508 6.25002 50.6617V60.0367C6.25829 67.4934 9.22411 74.6423 14.4968 79.915C19.7694 85.1876 26.9183 88.1535 34.375 88.1617H50C57.4567 88.1535 64.6056 85.1876 69.8783 79.915C75.1509 74.6423 78.1168 67.4934 78.125 60.0367V53.7867H96.875C97.7038 53.7867 98.4987 53.4575 99.0847 52.8714C99.6708 52.2854 100 51.4905 100 50.6617C100 49.8329 99.6708 49.0381 99.0847 48.452C98.4987 47.866 97.7038 47.5367 96.875 47.5367ZM71.875 60.0367C71.8693 65.4618 69.8499 70.6916 66.2083 74.7129C62.5667 78.7341 57.562 81.2604 52.1641 81.8023C55.3945 79.169 57.9981 75.8496 59.7859 72.0848C61.5736 68.32 62.5008 64.2044 62.5 60.0367V53.7867H71.875V60.0367ZM59.375 47.5367C58.5462 47.5367 57.7514 47.866 57.1653 48.452C56.5793 49.0381 56.25 49.8329 56.25 50.6617V60.0367C56.25 65.8383 53.9453 71.4023 49.843 75.5047C45.7406 79.607 40.1766 81.9117 34.375 81.9117C28.5734 81.9117 23.0094 79.607 18.9071 75.5047C14.8047 71.4023 12.5 65.8383 12.5 60.0367V50.6617C12.4952 41.8124 15.9032 33.3021 22.0149 26.9023C28.1265 20.5024 36.4708 16.7061 45.3109 16.3034C54.1511 15.9008 62.806 18.9229 69.4741 24.7406C76.1422 30.5584 80.3098 38.7236 81.1094 47.5367H59.375Z" fill="#89CAEF"/>
</g>
<defs>
<clipPath id="clip0_2808_3189">
<rect width="100" height="100" fill="white" transform="translate(0 0.661621)"/>
</clipPath>
</defs>
</svg>
