<svg width="32" height="33" viewBox="0 0 32 33" fill="none" xmlns="http://www.w3.org/2000/svg">
<path opacity="0.2" d="M21 9.5V28.5L14 23.5L7 28.5V9.5C7 9.23478 7.10536 8.98043 7.29289 8.79289C7.48043 8.60536 7.73478 8.5 8 8.5H20C20.2652 8.5 20.5196 8.60536 20.7071 8.79289C20.8946 8.98043 21 9.23478 21 9.5Z" fill="black"/>
<path d="M20 7.5H8C7.46957 7.5 6.96086 7.71071 6.58579 8.08579C6.21071 8.46086 6 8.96957 6 9.5V28.5C6 28.6837 6.05061 28.8639 6.1463 29.0208C6.24199 29.1776 6.37904 29.3051 6.54241 29.3892C6.70579 29.4733 6.88917 29.5107 7.07243 29.4974C7.25569 29.4841 7.43174 29.4205 7.58125 29.3137L14 24.7288L20.42 29.3137C20.5695 29.4202 20.7454 29.4835 20.9285 29.4966C21.1116 29.5097 21.2947 29.4722 21.4579 29.3882C21.621 29.3041 21.7579 29.1768 21.8536 29.0201C21.9492 28.8635 21.9998 28.6835 22 28.5V9.5C22 8.96957 21.7893 8.46086 21.4142 8.08579C21.0391 7.71071 20.5304 7.5 20 7.5ZM20 26.5575L14.58 22.6825C14.4104 22.5614 14.2072 22.4962 13.9987 22.4962C13.7903 22.4962 13.5871 22.5614 13.4175 22.6825L8 26.5562V9.5H20V26.5575ZM26 5.5V24.5C26 24.7652 25.8946 25.0196 25.7071 25.2071C25.5196 25.3946 25.2652 25.5 25 25.5C24.7348 25.5 24.4804 25.3946 24.2929 25.2071C24.1054 25.0196 24 24.7652 24 24.5V5.5H11C10.7348 5.5 10.4804 5.39464 10.2929 5.20711C10.1054 5.01957 10 4.76522 10 4.5C10 4.23478 10.1054 3.98043 10.2929 3.79289C10.4804 3.60536 10.7348 3.5 11 3.5H24C24.5304 3.5 25.0391 3.71071 25.4142 4.08579C25.7893 4.46086 26 4.96957 26 5.5Z" fill="#A5DBE2"/>
</svg>
