<svg width="32" height="33" viewBox="0 0 32 33" fill="none" xmlns="http://www.w3.org/2000/svg">
<path opacity="0.2" d="M22.5 14C22.5 15.7239 21.8152 17.3772 20.5962 18.5962C19.3772 19.8152 17.7239 20.5 16 20.5C16.7956 20.5 17.5587 20.1839 18.1213 19.6213C18.6839 19.0587 19 18.2956 19 17.5C19 14.5 16 12.5 16 12.5C16 12.5 13 14.5 13 17.5C13 18.2956 13.3161 19.0587 13.8787 19.6213C14.4413 20.1839 15.2044 20.5 16 20.5C14.2761 20.5 12.6228 19.8152 11.4038 18.5962C10.1848 17.3772 9.5 15.7239 9.5 14C9.5 8.5 16 4.5 16 4.5C16 4.5 22.5 8.5 22.5 14Z" fill="black"/>
<path d="M16 21.4999C17.9884 21.4976 19.8947 20.7066 21.3007 19.3006C22.7068 17.8946 23.4977 15.9883 23.5 13.9999C23.5 8.00987 16.8088 3.82362 16.5238 3.64862C16.3662 3.55176 16.1849 3.50049 16 3.50049C15.8151 3.50049 15.6338 3.55176 15.4763 3.64862C14.2219 4.4637 13.0656 5.42041 12.03 6.49987C9.72126 8.89112 8.50001 11.4874 8.50001 13.9999C8.50232 15.9883 9.29324 17.8946 10.6993 19.3006C12.1053 20.7066 14.0116 21.4976 16 21.4999ZM14 17.4999C14 15.8036 15.25 14.4424 16 13.7761C16.75 14.4424 18 15.8036 18 17.4999C18 18.0303 17.7893 18.539 17.4142 18.9141C17.0391 19.2892 16.5304 19.4999 16 19.4999C15.4696 19.4999 14.9609 19.2892 14.5858 18.9141C14.2107 18.539 14 18.0303 14 17.4999ZM16 5.70737C17.4675 6.74987 21.5 9.99987 21.5 13.9999C21.5004 15.4072 20.9593 16.7607 19.9888 17.7799C19.995 17.6874 20 17.5936 20 17.4999C20 13.9999 16.695 11.7611 16.555 11.6674C16.3907 11.5577 16.1976 11.4992 16 11.4992C15.8025 11.4992 15.6093 11.5577 15.445 11.6674C15.305 11.7611 12 13.9999 12 17.4999C12 17.5936 12 17.6874 12.0113 17.7799C11.0407 16.7607 10.4996 15.4072 10.5 13.9999C10.5 9.99987 14.5338 6.74987 16 5.70737ZM27.9525 28.8024C27.9127 28.9275 27.8487 29.0437 27.764 29.1441C27.6793 29.2445 27.5757 29.3272 27.459 29.3876C27.3424 29.448 27.215 29.4848 27.0841 29.4959C26.9532 29.507 26.8214 29.4922 26.6963 29.4524L16 26.0486L5.30376 29.4524C5.17859 29.4922 5.04681 29.5069 4.91594 29.4958C4.78506 29.4847 4.65766 29.4479 4.54101 29.3875C4.42436 29.3272 4.32073 29.2444 4.23606 29.144C4.15138 29.0436 4.08731 28.9275 4.04751 28.8024C4.0077 28.6772 3.99293 28.5454 4.00406 28.4145C4.01518 28.2837 4.05197 28.1563 4.11233 28.0396C4.17269 27.923 4.25543 27.8193 4.35583 27.7347C4.45624 27.65 4.57234 27.5859 4.69751 27.5461L12.6975 24.9999L4.69751 22.4524C4.56888 22.4155 4.44896 22.3533 4.34483 22.2693C4.2407 22.1853 4.15448 22.0812 4.09129 21.9633C4.02809 21.8454 3.9892 21.716 3.97692 21.5828C3.96464 21.4495 3.97922 21.3152 4.01979 21.1877C4.06036 21.0602 4.12611 20.9422 4.21313 20.8406C4.30014 20.7389 4.40667 20.6558 4.52639 20.5961C4.64612 20.5364 4.77661 20.5013 4.91014 20.4929C5.04366 20.4846 5.17751 20.5031 5.30376 20.5474L16 23.9499L26.6963 20.5474C26.8225 20.5031 26.9564 20.4846 27.0899 20.4929C27.2234 20.5013 27.3539 20.5364 27.4736 20.5961C27.5933 20.6558 27.6999 20.7389 27.7869 20.8406C27.8739 20.9422 27.9396 21.0602 27.9802 21.1877C28.0208 21.3152 28.0354 21.4495 28.0231 21.5828C28.0108 21.716 27.9719 21.8454 27.9087 21.9633C27.8455 22.0812 27.7593 22.1853 27.6552 22.2693C27.5511 22.3533 27.4311 22.4155 27.3025 22.4524L19.3025 24.9999L27.3025 27.5461C27.4277 27.5859 27.5438 27.65 27.6442 27.7346C27.7446 27.8193 27.8274 27.9229 27.8877 28.0396C27.9481 28.1562 27.9849 28.2837 27.996 28.4145C28.0071 28.5454 27.9923 28.6772 27.9525 28.8024Z" fill="#FF5A43"/>
</svg>
