<svg width="32" height="33" viewBox="0 0 32 33" fill="none" xmlns="http://www.w3.org/2000/svg">
<path opacity="0.2" d="M28 9.5V15.5H20C20 16.5609 19.5786 17.5783 18.8284 18.3284C18.0783 19.0786 17.0609 19.5 16 19.5C14.9391 19.5 13.9217 19.0786 13.1716 18.3284C12.4214 17.5783 12 16.5609 12 15.5H4V9.5C4 8.96957 4.21071 8.46086 4.58579 8.08579C4.96086 7.71071 5.46957 7.5 6 7.5H26C26.5304 7.5 27.0391 7.71071 27.4142 8.08579C27.7893 8.46086 28 8.96957 28 9.5Z" fill="black"/>
<path d="M26 6.5H6C5.20435 6.5 4.44129 6.81607 3.87868 7.37868C3.31607 7.94129 3 8.70435 3 9.5V23.5C3 24.2956 3.31607 25.0587 3.87868 25.6213C4.44129 26.1839 5.20435 26.5 6 26.5H26C26.7956 26.5 27.5587 26.1839 28.1213 25.6213C28.6839 25.0587 29 24.2956 29 23.5V9.5C29 8.70435 28.6839 7.94129 28.1213 7.37868C27.5587 6.81607 26.7956 6.5 26 6.5ZM5 12.5H27V14.5H20C19.7348 14.5 19.4804 14.6054 19.2929 14.7929C19.1054 14.9804 19 15.2348 19 15.5C19 16.2956 18.6839 17.0587 18.1213 17.6213C17.5587 18.1839 16.7956 18.5 16 18.5C15.2044 18.5 14.4413 18.1839 13.8787 17.6213C13.3161 17.0587 13 16.2956 13 15.5C13 15.2348 12.8946 14.9804 12.7071 14.7929C12.5196 14.6054 12.2652 14.5 12 14.5H5V12.5ZM6 8.5H26C26.2652 8.5 26.5196 8.60536 26.7071 8.79289C26.8946 8.98043 27 9.23478 27 9.5V10.5H5V9.5C5 9.23478 5.10536 8.98043 5.29289 8.79289C5.48043 8.60536 5.73478 8.5 6 8.5ZM26 24.5H6C5.73478 24.5 5.48043 24.3946 5.29289 24.2071C5.10536 24.0196 5 23.7652 5 23.5V16.5H11.1C11.3295 17.6303 11.9427 18.6465 12.8357 19.3764C13.7288 20.1063 14.8466 20.505 16 20.505C17.1534 20.505 18.2712 20.1063 19.1643 19.3764C20.0573 18.6465 20.6705 17.6303 20.9 16.5H27V23.5C27 23.7652 26.8946 24.0196 26.7071 24.2071C26.5196 24.3946 26.2652 24.5 26 24.5Z" fill="#FFEDEB" fill-opacity="0.75"/>
</svg>
