<svg width="24" height="24" viewBox="0 0 24 24" fill="none" xmlns="http://www.w3.org/2000/svg">
<path opacity="0.2" d="M18.75 8.2501C18.75 9.50367 18.401 10.7325 17.742 11.7988C17.0829 12.8652 16.14 13.727 15.0188 14.2876L12 8.2501L8.98125 14.2876C7.90614 13.75 6.99407 12.9351 6.33931 11.9271C5.68455 10.919 5.31085 9.75444 5.25682 8.55363C5.2028 7.35283 5.47041 6.15937 6.032 5.09661C6.59359 4.03384 7.42879 3.14032 8.45128 2.50837C9.47378 1.87643 10.6465 1.52898 11.8482 1.50195C13.0499 1.47492 14.2371 1.76928 15.2869 2.3546C16.3368 2.93993 17.2113 3.79499 17.8202 4.83143C18.429 5.86787 18.75 7.04808 18.75 8.2501Z" fill="#EEA78E"/>
<path d="M12.6712 7.91435C12.609 7.78955 12.5133 7.68456 12.3947 7.61117C12.2761 7.53778 12.1394 7.4989 12 7.4989C11.8605 7.4989 11.7239 7.53778 11.6053 7.61117C11.4867 7.68456 11.3909 7.78955 11.3287 7.91435L4.57875 21.4144C4.48973 21.5923 4.47504 21.7982 4.53789 21.987C4.60075 22.1757 4.736 22.3317 4.9139 22.4208C5.0918 22.5098 5.29778 22.5245 5.48652 22.4616C5.67526 22.3988 5.8313 22.2635 5.92031 22.0856L7.21875 19.5H16.7906L18.0834 22.0856C18.1454 22.2095 18.2405 22.3138 18.3582 22.3869C18.4758 22.4601 18.6115 22.4992 18.75 22.5C18.8778 22.4999 19.0035 22.4672 19.1151 22.4049C19.2268 22.3426 19.3206 22.2528 19.3878 22.144C19.4549 22.0352 19.4932 21.9111 19.4989 21.7834C19.5045 21.6557 19.4775 21.5287 19.4203 21.4144L12.6712 7.91435ZM12 9.92717L14.5369 15H9.46312L12 9.92717ZM7.96875 18L8.71875 16.5H15.2906L16.0406 18H7.96875ZM14.9569 8.7881C15.0341 8.35626 15.0157 7.91273 14.903 7.48877C14.7902 7.06481 14.5858 6.67074 14.3043 6.33433C14.0227 5.99792 13.6708 5.72736 13.2733 5.54171C12.8758 5.35606 12.4424 5.25985 12.0037 5.25985C11.565 5.25985 11.1317 5.35606 10.7342 5.54171C10.3367 5.72736 9.9848 5.99792 9.70323 6.33433C9.42166 6.67074 9.21729 7.06481 9.10453 7.48877C8.99178 7.91273 8.97337 8.35626 9.05062 8.7881C9.07063 8.88599 9.07088 8.98689 9.05136 9.08488C9.03184 9.18287 8.99293 9.27596 8.93693 9.35871C8.88092 9.44145 8.80895 9.51217 8.72524 9.56671C8.64153 9.62125 8.54776 9.65852 8.44945 9.67632C8.35113 9.69412 8.25025 9.6921 8.15273 9.67037C8.05521 9.64865 7.96301 9.60765 7.88155 9.5498C7.80009 9.49195 7.73101 9.4184 7.67837 9.33348C7.62572 9.24856 7.59058 9.15398 7.575 9.05529C7.45744 8.40692 7.48371 7.74065 7.65196 7.10355C7.8202 6.46645 8.1263 5.87408 8.54864 5.36828C8.97098 4.86248 9.49924 4.45561 10.0961 4.17641C10.693 3.89721 11.3439 3.7525 12.0028 3.7525C12.6617 3.7525 13.3126 3.89721 13.9095 4.17641C14.5064 4.45561 15.0346 4.86248 15.457 5.36828C15.8793 5.87408 16.1854 6.46645 16.3537 7.10355C16.5219 7.74065 16.5482 8.40692 16.4306 9.05529C16.3995 9.22812 16.3086 9.38452 16.174 9.49725C16.0393 9.60998 15.8694 9.67188 15.6937 9.67216C15.6488 9.67179 15.604 9.66771 15.5597 9.65998C15.4625 9.64279 15.3696 9.60658 15.2864 9.55342C15.2032 9.50026 15.1313 9.4312 15.0749 9.35019C15.0184 9.26919 14.9785 9.17784 14.9575 9.08138C14.9364 8.98492 14.9346 8.88526 14.9522 8.7881H14.9569ZM6.01406 12.7697C5.17369 11.6564 4.66041 10.3309 4.5319 8.94199C4.40339 7.55309 4.66473 6.15588 5.28657 4.90734C5.90841 3.6588 6.8661 2.6084 8.05204 1.87417C9.23798 1.13994 10.6052 0.750977 12 0.750977C13.3948 0.750977 14.762 1.13994 15.948 1.87417C17.1339 2.6084 18.0916 3.6588 18.7134 4.90734C19.3353 6.15588 19.5966 7.55309 19.4681 8.94199C19.3396 10.3309 18.8263 11.6564 17.9859 12.7697C17.8648 12.9249 17.6874 13.0262 17.4921 13.0518C17.2969 13.0774 17.0994 13.0252 16.9423 12.9064C16.7853 12.7876 16.6812 12.6118 16.6527 12.4169C16.6241 12.2221 16.6733 12.0238 16.7897 11.865C17.4617 10.9743 17.872 9.91392 17.9746 8.80292C18.0772 7.69191 17.8679 6.57431 17.3704 5.57566C16.8728 4.57701 16.1067 3.73687 15.158 3.14962C14.2094 2.56237 13.1157 2.25127 12 2.25127C10.8843 2.25127 9.79064 2.56237 8.84196 3.14962C7.89329 3.73687 7.12715 4.57701 6.6296 5.57566C6.13206 6.57431 5.92283 7.69191 6.02541 8.80292C6.12799 9.91392 6.53832 10.9743 7.21031 11.865C7.32668 12.0238 7.37589 12.2221 7.34733 12.4169C7.31877 12.6118 7.21473 12.7876 7.05766 12.9064C6.90059 13.0252 6.70311 13.0774 6.50785 13.0518C6.3126 13.0262 6.13523 12.9249 6.01406 12.7697Z" fill="#EEA78E"/>
</svg>
