<svg width="24" height="24" viewBox="0 0 24 24" fill="none" xmlns="http://www.w3.org/2000/svg">
<path opacity="0.2" d="M18.75 8.25C18.75 9.50357 18.401 10.7324 17.742 11.7987C17.0829 12.8651 16.14 13.7269 15.0188 14.2875L12 8.25L8.98125 14.2875C7.90614 13.7499 6.99407 12.935 6.33931 11.927C5.68455 10.9189 5.31085 9.75434 5.25682 8.55353C5.2028 7.35273 5.47041 6.15928 6.032 5.09651C6.59359 4.03374 7.42879 3.14022 8.45128 2.50827C9.47378 1.87633 10.6465 1.52889 11.8482 1.50185C13.0499 1.47482 14.2371 1.76918 15.2869 2.3545C16.3368 2.93983 17.2113 3.79489 17.8202 4.83133C18.429 5.86777 18.75 7.04798 18.75 8.25Z" fill="#EEA78E"/>
<path d="M12.6713 7.91438C12.6091 7.78957 12.5133 7.68458 12.3947 7.61119C12.2762 7.5378 12.1395 7.49893 12 7.49893C11.8606 7.49893 11.7239 7.5378 11.6053 7.61119C11.4868 7.68458 11.391 7.78957 11.3288 7.91438L4.57879 21.4144C4.48978 21.5923 4.47508 21.7983 4.53794 21.987C4.60079 22.1757 4.73605 22.3318 4.91395 22.4208C5.09185 22.5098 5.29783 22.5245 5.48656 22.4616C5.6753 22.3988 5.83134 22.2635 5.92035 22.0856L7.21879 19.5H16.7907L18.0835 22.0856C18.1455 22.2095 18.2406 22.3138 18.3582 22.387C18.4759 22.4601 18.6115 22.4992 18.75 22.5C18.8779 22.4999 19.0036 22.4672 19.1152 22.4049C19.2268 22.3426 19.3206 22.2528 19.3878 22.144C19.455 22.0353 19.4932 21.9111 19.4989 21.7834C19.5046 21.6557 19.4776 21.5287 19.4204 21.4144L12.6713 7.91438ZM12 9.92719L14.5369 15H9.46317L12 9.92719ZM7.96879 18L8.71879 16.5H15.2907L16.0407 18H7.96879ZM14.9569 8.78813C15.0342 8.35628 15.0158 7.91275 14.903 7.48879C14.7902 7.06484 14.5859 6.67076 14.3043 6.33435C14.0227 5.99794 13.6708 5.72738 13.2733 5.54173C12.8758 5.35609 12.4425 5.25987 12.0038 5.25987C11.5651 5.25987 11.1317 5.35609 10.7343 5.54173C10.3368 5.72738 9.98485 5.99794 9.70327 6.33435C9.4217 6.67076 9.21733 7.06484 9.10458 7.48879C8.99182 7.91275 8.97342 8.35628 9.05067 8.78813C9.07068 8.88601 9.07093 8.98692 9.05141 9.0849C9.03188 9.18289 8.99298 9.27599 8.93697 9.35873C8.88097 9.44147 8.809 9.51219 8.72529 9.56673C8.64157 9.62128 8.54781 9.65854 8.44949 9.67634C8.35118 9.69415 8.2503 9.69212 8.15277 9.6704C8.05525 9.64867 7.96305 9.60768 7.88159 9.54983C7.80013 9.49197 7.73105 9.41843 7.67841 9.33351C7.62577 9.24859 7.59062 9.154 7.57504 9.05531C7.45749 8.40695 7.48376 7.74067 7.652 7.10357C7.82024 6.46648 8.12635 5.8741 8.54869 5.3683C8.97102 4.86251 9.49929 4.45563 10.0962 4.17643C10.693 3.89723 11.3439 3.75252 12.0029 3.75252C12.6618 3.75252 13.3127 3.89723 13.9096 4.17643C14.5064 4.45563 15.0347 4.86251 15.457 5.3683C15.8794 5.8741 16.1855 6.46648 16.3537 7.10357C16.5219 7.74067 16.5482 8.40695 16.4307 9.05531C16.3995 9.22814 16.3087 9.38455 16.174 9.49727C16.0394 9.61 15.8694 9.6719 15.6938 9.67219C15.6488 9.67181 15.604 9.66773 15.5597 9.66C15.4625 9.64282 15.3696 9.6066 15.2864 9.55344C15.2032 9.50028 15.1314 9.43122 15.0749 9.35021C15.0185 9.26921 14.9786 9.17786 14.9575 9.0814C14.9365 8.98495 14.9347 8.88528 14.9522 8.78813H14.9569ZM6.0141 12.7697C5.17373 11.6564 4.66046 10.3309 4.53194 8.94201C4.40343 7.55312 4.66478 6.1559 5.28662 4.90736C5.90846 3.65882 6.86615 2.60842 8.05209 1.87419C9.23802 1.13997 10.6052 0.750999 12 0.750999C13.3949 0.750999 14.7621 1.13997 15.948 1.87419C17.1339 2.60842 18.0916 3.65882 18.7135 4.90736C19.3353 6.1559 19.5967 7.55312 19.4681 8.94201C19.3396 10.3309 18.8264 11.6564 17.986 12.7697C17.8648 12.9249 17.6874 13.0263 17.4922 13.0518C17.2969 13.0774 17.0994 13.0252 16.9424 12.9064C16.7853 12.7876 16.6813 12.6118 16.6527 12.417C16.6241 12.2221 16.6734 12.0239 16.7897 11.865C17.4617 10.9743 17.872 9.91394 17.9746 8.80294C18.0772 7.69193 17.868 6.57434 17.3704 5.57568C16.8729 4.57703 16.1068 3.73689 15.1581 3.14964C14.2094 2.56239 13.1158 2.25129 12 2.25129C10.8843 2.25129 9.79068 2.56239 8.84201 3.14964C7.89333 3.73689 7.12719 4.57703 6.62965 5.57568C6.13211 6.57434 5.92287 7.69193 6.02546 8.80294C6.12804 9.91394 6.53837 10.9743 7.21036 11.865C7.32672 12.0239 7.37594 12.2221 7.34738 12.417C7.31882 12.6118 7.21477 12.7876 7.05771 12.9064C6.90064 13.0252 6.70316 13.0774 6.5079 13.0518C6.31264 13.0263 6.13528 12.9249 6.0141 12.7697Z" fill="black"/>
</svg>
