<svg width="100" height="101" viewBox="0 0 100 101" fill="none" xmlns="http://www.w3.org/2000/svg">
<path opacity="0.2" d="M75 31.4116V68.9116H40.625C43.0973 68.9116 45.514 68.1785 47.5696 66.805C49.6252 65.4315 51.2274 63.4792 52.1735 61.1952C53.1196 58.9111 53.3671 56.3978 52.8848 53.973C52.4025 51.5482 51.212 49.3209 49.4638 47.5728C47.7157 45.8246 45.4884 44.6341 43.0636 44.1518C40.6389 43.6695 38.1255 43.917 35.8415 44.8631C33.5574 45.8092 31.6051 47.4114 30.2316 49.467C28.8581 51.5226 28.125 53.9394 28.125 56.4116H25V31.4116H75Z" fill="black"/>
<path d="M84.375 15.7866H15.625C13.9674 15.7866 12.3777 16.4451 11.2056 17.6172C10.0335 18.7893 9.375 20.379 9.375 22.0366V78.2866C9.375 79.9442 10.0335 81.5339 11.2056 82.706C12.3777 83.8781 13.9674 84.5366 15.625 84.5366H20.8555C21.4469 84.5368 22.0262 84.3692 22.5262 84.0532C23.0261 83.7372 23.4261 83.2858 23.6797 82.7515C25.1993 79.5432 27.5985 76.8322 30.5982 74.9338C33.598 73.0354 37.075 72.0276 40.625 72.0276C44.175 72.0276 47.652 73.0354 50.6518 74.9338C53.6515 76.8322 56.0507 79.5432 57.5703 82.7515C57.8239 83.2858 58.2239 83.7372 58.7238 84.0532C59.2238 84.3692 59.8031 84.5368 60.3945 84.5366H84.375C86.0326 84.5366 87.6223 83.8781 88.7944 82.706C89.9665 81.5339 90.625 79.9442 90.625 78.2866V22.0366C90.625 20.379 89.9665 18.7893 88.7944 17.6172C87.6223 16.4451 86.0326 15.7866 84.375 15.7866ZM31.25 56.4116C31.25 54.5574 31.7998 52.7449 32.83 51.2032C33.8601 49.6614 35.3243 48.4598 37.0373 47.7502C38.7504 47.0407 40.6354 46.855 42.454 47.2168C44.2725 47.5785 45.943 48.4714 47.2541 49.7825C48.5652 51.0936 49.4581 52.7641 49.8199 54.5826C50.1816 56.4012 49.9959 58.2862 49.2864 59.9993C48.5768 61.7123 47.3752 63.1765 45.8335 64.2066C44.2918 65.2368 42.4792 65.7866 40.625 65.7866C38.1386 65.7866 35.754 64.7989 33.9959 63.0407C32.2377 61.2826 31.25 58.898 31.25 56.4116ZM84.375 78.2866H62.2773C59.6677 73.8 55.734 70.2306 51.0156 68.0679C53.3812 65.9615 55.0508 63.186 55.803 60.1092C56.5552 57.0324 56.3546 53.7996 55.2277 50.8394C54.1008 47.8792 52.1008 45.3314 49.4929 43.5338C46.8851 41.7361 43.7924 40.7734 40.625 40.7734C37.4576 40.7734 34.3649 41.7361 31.7571 43.5338C29.1492 45.3314 27.1492 47.8792 26.0223 50.8394C24.8954 53.7996 24.6948 57.0324 25.447 60.1092C26.1992 63.186 27.8688 65.9615 30.2344 68.0679C25.516 70.2306 21.5823 73.8 18.9727 78.2866H15.625V22.0366H84.375V78.2866ZM21.875 37.6616V31.4116C21.875 30.5828 22.2042 29.788 22.7903 29.2019C23.3763 28.6159 24.1712 28.2866 25 28.2866H75C75.8288 28.2866 76.6237 28.6159 77.2097 29.2019C77.7958 29.788 78.125 30.5828 78.125 31.4116V68.9116C78.125 69.7404 77.7958 70.5353 77.2097 71.1213C76.6237 71.7074 75.8288 72.0366 75 72.0366H68.75C67.9212 72.0366 67.1263 71.7074 66.5403 71.1213C65.9542 70.5353 65.625 69.7404 65.625 68.9116C65.625 68.0828 65.9542 67.288 66.5403 66.7019C67.1263 66.1159 67.9212 65.7866 68.75 65.7866H71.875V34.5366H28.125V37.6616C28.125 38.4904 27.7958 39.2853 27.2097 39.8713C26.6237 40.4574 25.8288 40.7866 25 40.7866C24.1712 40.7866 23.3763 40.4574 22.7903 39.8713C22.2042 39.2853 21.875 38.4904 21.875 37.6616Z" fill="#4AAF50"/>
</svg>
