<svg width="32" height="33" viewBox="0 0 32 33" fill="none" xmlns="http://www.w3.org/2000/svg">
<path opacity="0.2" d="M28 12.5V28.5L23.0525 24.5H11C10.7348 24.5 10.4804 24.3946 10.2929 24.2071C10.1054 24.0196 10 23.7652 10 23.5V18.5H21C21.2652 18.5 21.5196 18.3946 21.7071 18.2071C21.8946 18.0196 22 17.7652 22 17.5V11.5H27C27.2652 11.5 27.5196 11.6054 27.7071 11.7929C27.8946 11.9804 28 12.2348 28 12.5Z" fill="black"/>
<path d="M27 10.5H23V6.5C23 5.96957 22.7893 5.46086 22.4142 5.08579C22.0391 4.71071 21.5304 4.5 21 4.5H5C4.46957 4.5 3.96086 4.71071 3.58579 5.08579C3.21071 5.46086 3 5.96957 3 6.5V22.5C3.00059 22.6881 3.05423 22.8723 3.15478 23.0313C3.25532 23.1903 3.39868 23.3177 3.56839 23.3989C3.7381 23.4801 3.92728 23.5118 4.11418 23.4903C4.30108 23.4689 4.47814 23.3951 4.625 23.2775L9 19.75V23.5C9 24.0304 9.21071 24.5391 9.58579 24.9142C9.96086 25.2893 10.4696 25.5 11 25.5H22.6987L27.375 29.2775C27.5519 29.4206 27.7724 29.4991 28 29.5C28.2652 29.5 28.5196 29.3946 28.7071 29.2071C28.8946 29.0196 29 28.7652 29 28.5V12.5C29 11.9696 28.7893 11.4609 28.4142 11.0858C28.0391 10.7107 27.5304 10.5 27 10.5ZM8.31875 17.7225L5 20.4062V6.5H21V17.5H8.9475C8.71863 17.5 8.4967 17.5786 8.31875 17.7225ZM27 26.4062L23.6812 23.7225C23.5043 23.5794 23.2838 23.5009 23.0562 23.5H11V19.5H21C21.5304 19.5 22.0391 19.2893 22.4142 18.9142C22.7893 18.5391 23 18.0304 23 17.5V12.5H27V26.4062Z" fill="#1F95F2"/>
</svg>
