<svg width="32" height="33" viewBox="0 0 32 33" fill="none" xmlns="http://www.w3.org/2000/svg">
<path opacity="0.2" d="M25 5.5V27.5C25 27.7652 24.8946 28.0196 24.7071 28.2071C24.5196 28.3946 24.2652 28.5 24 28.5H8C7.73478 28.5 7.48043 28.3946 7.29289 28.2071C7.10536 28.0196 7 27.7652 7 27.5V5.5C7 5.23478 7.10536 4.98043 7.29289 4.79289C7.48043 4.60536 7.73478 4.5 8 4.5H24C24.2652 4.5 24.5196 4.60536 24.7071 4.79289C24.8946 4.98043 25 5.23478 25 5.5Z" fill="#344F93"/>
<path d="M11 9.5C11 9.23478 11.1054 8.98043 11.2929 8.79289C11.4804 8.60536 11.7348 8.5 12 8.5H20C20.2652 8.5 20.5196 8.60536 20.7071 8.79289C20.8946 8.98043 21 9.23478 21 9.5C21 9.76522 20.8946 10.0196 20.7071 10.2071C20.5196 10.3946 20.2652 10.5 20 10.5H12C11.7348 10.5 11.4804 10.3946 11.2929 10.2071C11.1054 10.0196 11 9.76522 11 9.5ZM12 14.5H20C20.2652 14.5 20.5196 14.3946 20.7071 14.2071C20.8946 14.0196 21 13.7652 21 13.5C21 13.2348 20.8946 12.9804 20.7071 12.7929C20.5196 12.6054 20.2652 12.5 20 12.5H12C11.7348 12.5 11.4804 12.6054 11.2929 12.7929C11.1054 12.9804 11 13.2348 11 13.5C11 13.7652 11.1054 14.0196 11.2929 14.2071C11.4804 14.3946 11.7348 14.5 12 14.5ZM26 5.5V27.5C26 28.0304 25.7893 28.5391 25.4142 28.9142C25.0391 29.2893 24.5304 29.5 24 29.5H8C7.46957 29.5 6.96086 29.2893 6.58579 28.9142C6.21071 28.5391 6 28.0304 6 27.5V5.5C6 4.96957 6.21071 4.46086 6.58579 4.08579C6.96086 3.71071 7.46957 3.5 8 3.5H24C24.5304 3.5 25.0391 3.71071 25.4142 4.08579C25.7893 4.46086 26 4.96957 26 5.5ZM24 5.5H8V27.5H24V5.5ZM16 21.5C15.7033 21.5 15.4133 21.588 15.1666 21.7528C14.92 21.9176 14.7277 22.1519 14.6142 22.426C14.5006 22.7001 14.4709 23.0017 14.5288 23.2926C14.5867 23.5836 14.7296 23.8509 14.9393 24.0607C15.1491 24.2704 15.4164 24.4133 15.7074 24.4712C15.9983 24.5291 16.2999 24.4993 16.574 24.3858C16.8481 24.2723 17.0824 24.08 17.2472 23.8334C17.412 23.5867 17.5 23.2967 17.5 23C17.5 22.6022 17.342 22.2206 17.0607 21.9393C16.7794 21.658 16.3978 21.5 16 21.5Z" fill="black"/>
</svg>
