<svg width="100" height="101" viewBox="0 0 100 101" fill="none" xmlns="http://www.w3.org/2000/svg">
<g clip-path="url(#clip0_2845_21357)">
<path d="M65.225 100.661H12.5C10.775 100.661 9.375 99.2614 9.375 97.5364C9.375 95.8114 10.775 94.4114 12.5 94.4114H65.225C65.8167 94.4114 66.0792 94.0489 66.1958 93.7447C66.3125 93.4405 66.3625 92.9947 65.925 92.603L38.2125 67.524C35.9583 65.4906 35.2083 62.3406 36.3 59.5031C37.3958 56.6615 40.0667 54.8281 43.1083 54.8281H79.1667C80.8917 54.8281 82.2917 56.2281 82.2917 57.9531C82.2917 59.6781 80.8917 61.0781 79.1667 61.0781H43.1083C42.5167 61.0781 42.2542 61.4406 42.1375 61.7448C42.0208 62.049 41.9708 62.4948 42.4083 62.8865L70.1208 87.9655C72.3708 89.9989 73.125 93.1489 72.0333 95.9864C70.9375 98.828 68.2667 100.661 65.225 100.661Z" fill="#2196F3"/>
<path d="M58.825 77.7451H49.5083L65.925 92.5994C66.3625 92.9952 66.3125 93.4369 66.1958 93.741C66.0792 94.0452 65.8125 94.4077 65.225 94.4077H12.5C10.775 94.4077 9.375 95.8077 9.375 97.5327C9.375 99.2619 10.775 100.662 12.5 100.662H65.225C68.2667 100.662 70.9375 98.8285 72.0292 95.9869C73.1208 93.1494 72.3667 89.9994 70.1167 87.966L58.825 77.7451Z" fill="#1D83D4"/>
<path d="M12.5 96.495C11.7458 96.495 10.9917 96.2241 10.3917 95.6783C9.97083 95.2908 0 86.0741 0 76.4408C0 69.12 5.60833 63.1616 12.5 63.1616C19.3917 63.1616 25 69.12 25 76.445C25 86.0783 15.0292 95.2908 14.6083 95.6783C14.0083 96.2241 13.2542 96.495 12.5 96.495Z" fill="#F44336"/>
<path d="M12.5 63.1616C5.60833 63.1616 0 69.12 0 76.445C0 86.0783 9.97083 95.2908 10.3917 95.6783C10.9917 96.2241 11.7458 96.495 12.5 96.495V63.1616Z" fill="#D43A2F"/>
<path d="M79.1666 54.8283C78.4416 54.8283 77.7208 54.5783 77.1374 54.0783C76.3666 53.42 58.3333 37.8075 58.3333 21.7533C58.3333 10.1283 67.6791 0.661621 79.1666 0.661621C90.6541 0.661621 99.9999 10.1241 99.9999 21.7533C99.9999 37.8075 81.9666 53.42 81.1958 54.0783C80.6124 54.5783 79.8916 54.8283 79.1666 54.8283Z" fill="#FF5A43"/>
<path d="M79.1666 29.8283C74.5708 29.8283 70.8333 26.0908 70.8333 21.495C70.8333 16.8991 74.5708 13.1616 79.1666 13.1616C83.7624 13.1616 87.4999 16.8991 87.4999 21.495C87.4999 26.0908 83.7624 29.8283 79.1666 29.8283Z" fill="white"/>
<path d="M79.1666 0.661621C67.6791 0.661621 58.3333 10.1241 58.3333 21.7533C58.3333 37.8075 76.3666 53.42 77.1374 54.0783C77.7208 54.5783 78.4416 54.8283 79.1666 54.8283V29.8283C74.5708 29.8283 70.8333 26.0908 70.8333 21.495C70.8333 16.8991 74.5708 13.1616 79.1666 13.1616V0.661621Z" fill="#D43A2F"/>
<path d="M79.1666 13.1616C74.5708 13.1616 70.8333 16.8991 70.8333 21.495C70.8333 26.0908 74.5708 29.8283 79.1666 29.8283V13.1616Z" fill="#DEDEDE"/>
</g>
<defs>
<clipPath id="clip0_2845_21357">
<rect width="100" height="100" fill="white" transform="translate(0 0.661621)"/>
</clipPath>
</defs>
</svg>
