<svg width="32" height="33" viewBox="0 0 32 33" fill="none" xmlns="http://www.w3.org/2000/svg">
<path opacity="0.2" d="M26 18.5C26 21.1522 24.9464 23.6957 23.0711 25.5711C21.1957 27.4464 18.6522 28.5 16 28.5C13.3478 28.5 10.8043 27.4464 8.92893 25.5711C7.05357 23.6957 6 21.1522 6 18.5C6 14.6788 7.8025 11.2175 9.875 8.5L14 12.5L17.2838 3.5C19.9825 5.74 26 11.5188 26 18.5Z" fill="#FF5A44"/>
<path d="M22.9862 19.6673C22.7269 21.1157 22.0301 22.4498 20.9896 23.4902C19.949 24.5305 18.6147 25.2271 17.1663 25.486C17.1113 25.4949 17.0557 25.4995 17 25.4998C16.7492 25.4997 16.5075 25.4054 16.323 25.2355C16.1384 25.0656 16.0245 24.8326 16.0037 24.5826C15.9829 24.3326 16.0569 24.0839 16.2108 23.8859C16.3648 23.6879 16.5876 23.555 16.835 23.5135C18.9062 23.1648 20.6637 21.4073 21.015 19.3323C21.0594 19.0707 21.2059 18.8375 21.4223 18.684C21.6387 18.5304 21.9072 18.4691 22.1688 18.5135C22.4303 18.558 22.6635 18.7045 22.8171 18.9209C22.9706 19.1372 23.0319 19.4057 22.9875 19.6673H22.9862ZM27 18.4998C27 21.4172 25.8411 24.2151 23.7782 26.278C21.7153 28.3409 18.9174 29.4998 16 29.4998C13.0826 29.4998 10.2847 28.3409 8.22183 26.278C6.15893 24.2151 5 21.4172 5 18.4998C5 15.0098 6.375 11.441 9.0825 7.89355C9.1682 7.78122 9.27674 7.68833 9.40095 7.62099C9.52516 7.55365 9.66223 7.51341 9.80313 7.50289C9.94403 7.49238 10.0856 7.51185 10.2184 7.56001C10.3512 7.60817 10.4723 7.68393 10.5737 7.7823L13.5887 10.7085L16.3388 3.1573C16.3937 3.00669 16.484 2.8715 16.6022 2.76312C16.7203 2.65474 16.8628 2.57636 17.0175 2.53457C17.1723 2.49278 17.3349 2.48882 17.4915 2.52301C17.6481 2.55721 17.7942 2.62856 17.9175 2.73105C20.6512 4.9998 27 11.0685 27 18.4998ZM25 18.4998C25 12.7385 20.5262 7.7598 17.7237 5.20855L14.94 12.8423C14.8829 12.9991 14.7874 13.1391 14.6623 13.2495C14.5372 13.36 14.3865 13.4374 14.2238 13.4747C14.0612 13.5119 13.8918 13.5079 13.7311 13.463C13.5704 13.418 13.4235 13.3336 13.3038 13.2173L10.0075 10.0198C8.01125 12.901 7 15.7498 7 18.4998C7 20.8867 7.94821 23.1759 9.63604 24.8638C11.3239 26.5516 13.6131 27.4998 16 27.4998C18.3869 27.4998 20.6761 26.5516 22.364 24.8638C24.0518 23.1759 25 20.8867 25 18.4998Z" fill="#FF5A44"/>
</svg>
