<svg width="101" height="89" viewBox="0 0 101 89" fill="none" xmlns="http://www.w3.org/2000/svg">
<g clip-path="url(#clip0_2845_21332)">
<path d="M94.8834 0.543945H6.04109C3.08703 0.543945 0.670166 2.961 0.670166 5.91486V57.4655C0.670166 60.4196 3.08703 62.8364 6.04109 62.8364H94.8834C97.8371 62.8364 100.254 60.4196 100.254 57.4655V5.91486C100.254 2.961 97.8371 0.543945 94.8834 0.543945Z" fill="#DFEBFA"/>
<path d="M7.08206 57.4655V5.91486C7.08206 2.9608 9.49892 0.543945 12.453 0.543945H6.04109C3.08703 0.543945 0.670166 2.961 0.670166 5.91486V57.4655C0.670166 60.4196 3.08703 62.8364 6.04109 62.8364H12.453C9.49892 62.8364 7.08206 60.4196 7.08206 57.4655Z" fill="#B1DBFC"/>
<path d="M22.1939 72.9909C26.6579 72.9909 30.2767 69.372 30.2767 64.9081C30.2767 60.444 26.6579 56.8252 22.1939 56.8252C17.7298 56.8252 14.1111 60.444 14.1111 64.9081C14.1111 69.372 17.7298 72.9909 22.1939 72.9909Z" fill="#FFCEBE"/>
<path d="M29.2549 72.9907H15.1332C11.243 72.9907 8.06006 76.174 8.06006 80.0637V86.9041C8.06006 87.9394 8.89932 88.7791 9.93484 88.7791H34.4535C35.4888 88.7791 36.3283 87.9394 36.3283 86.9041V80.0637C36.3281 76.174 33.1451 72.9907 29.2549 72.9907Z" fill="#FF656F"/>
<path d="M50.4622 72.9909C54.9262 72.9909 58.5451 69.372 58.5451 64.9081C58.5451 60.444 54.9262 56.8252 50.4622 56.8252C45.9981 56.8252 42.3794 60.444 42.3794 64.9081C42.3794 69.372 45.9981 72.9909 50.4622 72.9909Z" fill="#FFCEBE"/>
<path d="M57.5232 72.9907H43.4015C39.5114 72.9907 36.3284 76.174 36.3284 80.0637V86.9041C36.3284 87.9394 37.1676 88.7791 38.2031 88.7791H62.7218C63.7571 88.7791 64.5966 87.9394 64.5966 86.9041V80.0637C64.5964 76.174 61.4134 72.9907 57.5232 72.9907Z" fill="#5CB3F8"/>
<path d="M78.7306 72.9909C83.1945 72.9909 86.8129 69.372 86.8129 64.9081C86.8129 60.444 83.1945 56.8252 78.7306 56.8252C74.2666 56.8252 70.6475 60.444 70.6475 64.9081C70.6475 69.372 74.2666 72.9909 78.7306 72.9909Z" fill="#FFCEBE"/>
<path d="M21.5409 64.9081C21.5409 61.7839 23.3146 59.0756 25.9088 57.7302C24.7963 57.1531 23.5338 56.8252 22.1939 56.8252C17.7299 56.8252 14.1111 60.4441 14.1111 64.9081C14.1111 69.372 17.7299 72.9909 22.1939 72.9909C23.5338 72.9909 24.7963 72.6629 25.9088 72.0859C23.3146 70.7405 21.5409 68.0323 21.5409 64.9081Z" fill="#FFB1A0"/>
<path d="M49.8092 64.9081C49.8092 61.784 51.5829 59.0756 54.1771 57.7302C53.0646 57.1531 51.8021 56.8252 50.4622 56.8252C45.9982 56.8252 42.3794 60.4441 42.3794 64.9081C42.3794 69.372 45.9982 72.9909 50.4622 72.9909C51.8021 72.9909 53.0646 72.663 54.1771 72.0859C51.5829 70.7405 49.8092 68.0323 49.8092 64.9081Z" fill="#FFB1A0"/>
<path d="M78.0776 64.9081C78.0776 61.784 79.8511 59.0756 82.4453 57.7302C81.3328 57.1531 80.0703 56.8252 78.7306 56.8252C74.2666 56.8252 70.6475 60.4441 70.6475 64.9081C70.6475 69.372 74.2666 72.9909 78.7306 72.9909C80.0703 72.9909 81.3328 72.663 82.4453 72.0859C79.8511 70.7405 78.0776 68.0323 78.0776 64.9081Z" fill="#FFB1A0"/>
<path d="M85.7907 72.9907H71.6694C67.7792 72.9907 64.5962 76.174 64.5962 80.0637V86.9041C64.5962 87.9394 65.4355 88.7791 66.471 88.7791H90.9899C92.0252 88.7791 92.8642 87.9394 92.8642 86.9041V80.0637C92.8642 76.174 89.6811 72.9907 85.7907 72.9907Z" fill="#FFE181"/>
<path d="M19.3809 86.9044V80.0647C19.3809 76.1742 22.5639 72.9912 26.4541 72.9912H15.1332C11.243 72.9912 8.06006 76.1742 8.06006 80.0647V86.9044C8.06006 87.9397 8.89932 88.7794 9.93484 88.7794H21.2559C20.2204 88.7794 19.3809 87.9397 19.3809 86.9044Z" fill="#FF4756"/>
<path d="M47.6492 86.9044V80.0647C47.6492 76.1742 50.8322 72.9912 54.7224 72.9912H43.4014C39.5111 72.9912 36.3281 76.1742 36.3281 80.0647V86.9044C36.3281 87.9397 37.1674 88.7794 38.2029 88.7794H49.524C48.4885 88.7794 47.6492 87.9397 47.6492 86.9044Z" fill="#0290F4"/>
<path d="M75.9171 86.9044V80.0647C75.9171 76.1742 79.1002 72.9912 82.9899 72.9912H71.6692C67.779 72.9912 64.5959 76.1742 64.5959 80.0647V86.9044C64.5959 87.9397 65.4352 88.7794 66.4707 88.7794H77.7921C76.7568 88.7794 75.9171 87.9397 75.9171 86.9044Z" fill="#FEC458"/>
<path d="M6.6814 6.55518H94.243V56.8253H6.6814V6.55518Z" fill="#FF656F"/>
<path d="M6.6814 6.55518H13.0933V56.8253H6.6814V6.55518Z" fill="#FF4756"/>
<path d="M50.4621 17.3999C42.6024 17.3999 36.1716 23.8307 36.1716 31.6904C36.1716 39.5502 42.6024 45.9809 50.4621 45.9809C58.3219 45.9809 64.7527 39.5502 64.7527 31.6904C64.7527 23.8307 58.3219 17.3999 50.4621 17.3999Z" fill="#DFEBFA"/>
<path d="M42.5835 31.6904C42.5835 24.9325 47.3393 19.2352 53.6681 17.7695C52.6363 17.5304 51.564 17.3999 50.4621 17.3999C42.6024 17.3999 36.1716 23.8307 36.1716 31.6904C36.1716 39.5502 42.6024 45.9811 50.4621 45.9811C51.564 45.9811 52.6363 45.8506 53.6681 45.6116C47.3393 44.1458 42.5835 38.4485 42.5835 31.6904Z" fill="#B1DBFC"/>
<path d="M56.4501 30.4124L48.327 25.5195C47.3325 24.9204 46.0649 25.6368 46.0649 26.7976V36.583C46.0649 37.744 47.3325 38.4602 48.327 37.8613L56.4501 32.9685C57.4133 32.3885 57.4133 30.9924 56.4501 30.4124Z" fill="#FF656F"/>
</g>
<defs>
<clipPath id="clip0_2845_21332">
<rect width="100" height="88.2353" fill="white" transform="translate(0.670166 0.543945)"/>
</clipPath>
</defs>
</svg>
