<svg width="32" height="33" viewBox="0 0 32 33" fill="none" xmlns="http://www.w3.org/2000/svg">
<path opacity="0.2" d="M24.485 24.9851L19.535 20.0351C20.4724 19.0975 20.9989 17.826 20.9989 16.5001C20.9989 15.1743 20.4724 13.9028 19.535 12.9651L24.485 8.01514C26.7353 10.2656 27.9994 13.3177 27.9994 16.5001C27.9994 19.6826 26.7353 22.7347 24.485 24.9851ZM7.515 8.01514C5.26474 10.2656 4.00056 13.3177 4.00056 16.5001C4.00056 19.6826 5.26474 22.7347 7.515 24.9851L12.465 20.0351C11.5276 19.0975 11.0011 17.826 11.0011 16.5001C11.0011 15.1743 11.5276 13.9028 12.465 12.9651L7.515 8.01514Z" fill="black"/>
<path d="M16 3.5C13.4288 3.5 10.9154 4.26244 8.77759 5.6909C6.63975 7.11935 4.97351 9.14968 3.98957 11.5251C3.00563 13.9006 2.74819 16.5144 3.2498 19.0362C3.75141 21.5579 4.98953 23.8743 6.80762 25.6924C8.6257 27.5105 10.9421 28.7486 13.4638 29.2502C15.9856 29.7518 18.5995 29.4944 20.9749 28.5104C23.3503 27.5265 25.3807 25.8603 26.8091 23.7224C28.2376 21.5846 29 19.0712 29 16.5C28.9964 13.0533 27.6256 9.74882 25.1884 7.31163C22.7512 4.87445 19.4467 3.50364 16 3.5ZM20.8875 19.9737C21.611 18.9599 21.9999 17.7455 21.9999 16.5C21.9999 15.2545 21.611 14.0401 20.8875 13.0262L24.45 9.465C26.0976 11.439 27.0001 13.9287 27.0001 16.5C27.0001 19.0713 26.0976 21.561 24.45 23.535L20.8875 19.9737ZM12 16.5C12 15.7089 12.2346 14.9355 12.6741 14.2777C13.1137 13.6199 13.7384 13.1072 14.4693 12.8045C15.2002 12.5017 16.0044 12.4225 16.7804 12.5769C17.5563 12.7312 18.269 13.1122 18.8284 13.6716C19.3878 14.231 19.7688 14.9437 19.9231 15.7196C20.0775 16.4956 19.9983 17.2998 19.6955 18.0307C19.3928 18.7616 18.8801 19.3864 18.2223 19.8259C17.5645 20.2654 16.7911 20.5 16 20.5C14.9391 20.5 13.9217 20.0786 13.1716 19.3284C12.4214 18.5783 12 17.5609 12 16.5ZM23.035 8.05L19.4738 11.6125C18.4599 10.889 17.2455 10.5001 16 10.5001C14.7545 10.5001 13.5401 10.889 12.5263 11.6125L8.96501 8.05C10.939 6.40237 13.4287 5.49988 16 5.49988C18.5713 5.49988 21.061 6.40237 23.035 8.05ZM7.55001 9.465L11.1125 13.0262C10.389 14.0401 10.0001 15.2545 10.0001 16.5C10.0001 17.7455 10.389 18.9599 11.1125 19.9737L7.55001 23.535C5.90238 21.561 4.99988 19.0713 4.99988 16.5C4.99988 13.9287 5.90238 11.439 7.55001 9.465ZM8.96501 24.95L12.5263 21.3875C13.5401 22.111 14.7545 22.4999 16 22.4999C17.2455 22.4999 18.4599 22.111 19.4738 21.3875L23.035 24.95C21.061 26.5976 18.5713 27.5001 16 27.5001C13.4287 27.5001 10.939 26.5976 8.96501 24.95Z" fill="black"/>
</svg>
