<svg width="94" height="101" viewBox="0 0 94 101" fill="none" xmlns="http://www.w3.org/2000/svg">
<g clip-path="url(#clip0_2845_21371)">
<path d="M53.8777 83.6334C70.0531 79.8098 80.0662 63.5975 76.2427 47.4223C72.4191 31.247 56.2067 21.234 40.0314 25.0576C23.8561 28.8811 13.8429 45.0934 17.6665 61.2687C21.49 77.4439 37.7023 87.4567 53.8777 83.6334Z" fill="#FABE2C"/>
<path d="M46.9539 24.2705V84.4718C63.5515 84.4718 77.0544 70.9688 77.0544 54.3713C77.0544 37.7738 63.5514 24.2705 46.9539 24.2705Z" fill="#FF9100"/>
<path d="M79.686 21.6391C72.52 14.4731 63.4177 9.94829 53.5594 8.5481L56.4446 5.66275C57.5887 4.5186 57.5887 2.66372 56.4446 1.51958C55.3007 0.375635 53.4456 0.375635 52.3014 1.51958L44.8821 8.93892C43.738 10.0829 43.738 11.938 44.8821 13.0821L52.3012 20.5012C52.8733 21.0733 53.6231 21.3595 54.3727 21.3595C55.1223 21.3595 55.8723 21.0733 56.4442 20.5012C57.5883 19.3573 57.5883 17.5022 56.4442 16.358L54.7915 14.7053C73.3466 18.3655 87.3842 34.7587 87.3842 54.3712C87.385 76.665 69.2473 94.8025 46.9537 94.8025C24.6602 94.8025 6.52271 76.665 6.52271 54.3714C6.52271 45.8645 9.13341 37.727 14.0729 30.8387C18.9098 24.0932 25.5778 19.0598 33.3565 16.2829C34.8803 15.7387 35.6745 14.0625 35.1305 12.5385C34.5866 11.0147 32.91 10.2205 31.3862 10.7645C22.4793 13.9444 14.8459 19.7054 9.311 27.4243C3.65356 35.3141 0.66333 44.6323 0.66333 54.3715C0.66333 66.7362 5.47837 78.3606 14.2216 87.1041C22.9647 95.8466 34.5892 100.662 46.9537 100.662C59.3184 100.662 70.9428 95.8466 79.686 87.1033C88.4292 78.3605 93.2442 66.736 93.2442 54.3714C93.2442 42.0067 88.4292 30.3821 79.686 21.6391Z" fill="#5C7099"/>
<path d="M50.5305 51.4646C48.2129 50.6454 45.6529 49.6581 44.2385 48.5487C43.8843 48.271 43.7334 47.5676 43.8709 46.8378C43.943 46.455 44.2783 45.1761 45.5666 44.7881C47.8336 44.1051 49.3781 45.0034 49.9371 45.4208C51.2336 46.3899 53.0692 46.1247 54.0377 44.8286C55.0067 43.5325 54.7414 41.6967 53.4455 40.728C52.9084 40.3265 51.5986 39.4676 49.724 39.0015V38.2153C49.724 36.5973 48.4123 35.2856 46.7943 35.2856C45.1763 35.2856 43.8647 36.5973 43.8647 38.2153V39.1819C40.9117 40.0765 38.7082 42.5926 38.1129 45.7526C37.5622 48.6751 38.5238 51.513 40.6227 53.1591C42.6982 54.787 45.6724 55.9618 48.5775 56.9888C50.8692 57.7987 50.9367 59.5536 50.773 60.5275C50.4998 62.1531 49.132 63.9101 46.7748 63.9256C44.3135 63.9417 43.6132 63.831 41.7554 62.6156C40.4012 61.7294 38.5857 62.1091 37.6997 63.4634C36.8141 64.8175 37.1935 66.6331 38.5477 67.5191C40.5683 68.8409 42.0826 69.4175 43.8647 69.6483V70.5272C43.8647 72.1452 45.1763 73.457 46.7943 73.457C48.4123 73.457 49.724 72.1452 49.724 70.5272V69.3487C51.1045 68.9288 52.366 68.2114 53.4533 67.2126C55.0836 65.7147 56.1836 63.6855 56.5513 61.4986C57.3017 57.0352 54.8822 53.0028 50.5305 51.4646Z" fill="#FFE666"/>
<path d="M53.5592 8.5481L56.4444 5.66275C57.5885 4.5186 57.5885 2.66372 56.4444 1.51958C55.3004 0.375635 53.4453 0.375635 52.3012 1.51958L44.8821 8.93892C43.7379 10.0829 43.7379 11.938 44.8821 13.0821L52.3012 20.5012C52.8733 21.0733 53.6231 21.3595 54.3727 21.3595C55.1223 21.3595 55.8723 21.0733 56.4441 20.5012C57.5883 19.3573 57.5883 17.5022 56.4441 16.358L54.7915 14.7053C73.3465 18.3655 87.3841 34.7587 87.3841 54.3712C87.385 76.665 69.2473 94.8025 46.9537 94.8025V100.662C59.3184 100.662 70.9428 95.8466 79.686 87.1033C88.4291 78.3605 93.2441 66.736 93.2441 54.3714C93.2441 42.0067 88.4291 30.3823 79.686 21.6391C72.52 14.4731 63.4176 9.94812 53.5592 8.5481Z" fill="#404A80"/>
<path d="M50.5305 51.4641C49.3391 51.043 48.0846 50.5769 46.9536 50.0732V56.3972C47.4933 56.6007 48.0366 56.7972 48.5776 56.9885C50.8692 57.7984 50.9368 59.5533 50.7731 60.5272C50.5069 62.1106 49.1995 63.8138 46.9536 63.916V73.4487C48.4971 73.3654 49.7241 72.0912 49.7241 70.527V69.3484C51.1046 68.9285 52.3661 68.2112 53.4534 67.2123C55.0837 65.7145 56.1837 63.6852 56.5514 61.4982C57.3019 57.0347 54.8823 53.0023 50.5305 51.4641Z" fill="#FABE2C"/>
<path d="M46.9536 35.2935V44.5481C48.4636 44.4804 49.5013 45.095 49.9372 45.4208C51.2337 46.39 53.0693 46.1247 54.0378 44.8286C55.0068 43.5325 54.7415 41.6968 53.4456 40.728C52.9085 40.3265 51.5988 39.4677 49.7241 39.0015V38.2154C49.7241 36.6509 48.4972 35.3766 46.9536 35.2935Z" fill="#FABE2C"/>
</g>
<defs>
<clipPath id="clip0_2845_21371">
<rect width="93.3333" height="100" fill="white" transform="translate(0.66333 0.661621)"/>
</clipPath>
</defs>
</svg>
