<svg width="100" height="101" viewBox="0 0 100 101" fill="none" xmlns="http://www.w3.org/2000/svg">
<path opacity="0.2" d="M87.5 50.6616C87.5 58.0784 85.3007 65.3287 81.1801 71.4955C77.0596 77.6624 71.2029 82.4688 64.3506 85.3071C57.4984 88.1454 49.9584 88.888 42.6841 87.4411C35.4098 85.9941 28.728 82.4226 23.4835 77.1781C18.239 71.9337 14.6675 65.2518 13.2206 57.9775C11.7736 50.7032 12.5162 43.1632 15.3545 36.311C18.1928 29.4588 22.9993 23.6021 29.1661 19.4815C35.333 15.361 42.5832 13.1616 50 13.1616C59.9456 13.1616 69.4839 17.1125 76.5165 24.1451C83.5491 31.1777 87.5 40.716 87.5 50.6616Z" fill="black"/>
<path d="M54.6875 70.9741C54.6875 71.9012 54.4126 72.8075 53.8975 73.5784C53.3825 74.3492 52.6504 74.95 51.7938 75.3048C50.9373 75.6596 49.9948 75.7524 49.0855 75.5716C48.1762 75.3907 47.341 74.9442 46.6855 74.2887C46.0299 73.6331 45.5835 72.7979 45.4026 71.8886C45.2217 70.9793 45.3145 70.0368 45.6693 69.1803C46.0241 68.3238 46.6249 67.5917 47.3958 67.0766C48.1666 66.5615 49.0729 66.2866 50 66.2866C51.2432 66.2866 52.4355 66.7805 53.3146 67.6596C54.1937 68.5386 54.6875 69.7309 54.6875 70.9741ZM50 28.7866C41.3828 28.7866 34.375 35.0952 34.375 42.8491V44.4116C34.375 45.2404 34.7043 46.0353 35.2903 46.6213C35.8764 47.2074 36.6712 47.5366 37.5 47.5366C38.3288 47.5366 39.1237 47.2074 39.7097 46.6213C40.2958 46.0353 40.625 45.2404 40.625 44.4116V42.8491C40.625 38.5522 44.8321 35.0366 50 35.0366C55.168 35.0366 59.375 38.5522 59.375 42.8491C59.375 47.146 55.168 50.6616 50 50.6616C49.1712 50.6616 48.3764 50.9909 47.7903 51.5769C47.2043 52.163 46.875 52.9578 46.875 53.7866V56.9116C46.875 57.7404 47.2043 58.5353 47.7903 59.1213C48.3764 59.7074 49.1712 60.0366 50 60.0366C50.8288 60.0366 51.6237 59.7074 52.2097 59.1213C52.7958 58.5353 53.125 57.7404 53.125 56.9116V56.6304C60.25 55.3218 65.625 49.6382 65.625 42.8491C65.625 35.0952 58.6172 28.7866 50 28.7866ZM90.625 50.6616C90.625 58.6965 88.2424 66.5509 83.7785 73.2317C79.3145 79.9124 72.9698 85.1194 65.5465 88.1942C58.1233 91.269 49.955 92.0735 42.0745 90.506C34.194 88.9385 26.9553 85.0693 21.2738 79.3878C15.5923 73.7063 11.7231 66.4676 10.1556 58.5872C8.58809 50.7067 9.3926 42.5384 12.4674 35.1151C15.5422 27.6919 20.7492 21.3471 27.43 16.8832C34.1107 12.4192 41.9652 10.0366 50 10.0366C60.771 10.048 71.0975 14.3318 78.7137 21.948C86.3299 29.5642 90.6136 39.8907 90.625 50.6616ZM84.375 50.6616C84.375 43.8629 82.359 37.2168 78.5818 31.5639C74.8046 25.911 69.436 21.505 63.1548 18.9033C56.8736 16.3015 49.9619 15.6208 43.2938 16.9471C36.6257 18.2735 30.5007 21.5474 25.6932 26.3548C20.8858 31.1623 17.6119 37.2873 16.2855 43.9554C14.9592 50.6235 15.6399 57.5352 18.2417 63.8164C20.8434 70.0976 25.2494 75.4662 30.9023 79.2434C36.5552 83.0206 43.2013 85.0366 50 85.0366C59.1137 85.0263 67.8511 81.4013 74.2954 74.957C80.7397 68.5127 84.3647 59.7753 84.375 50.6616Z" fill="#4AAF50"/>
</svg>
