<svg width="100" height="101" viewBox="0 0 100 101" fill="none" xmlns="http://www.w3.org/2000/svg">
<path opacity="0.2" d="M87.5 25.6616L50 38.1616L12.5 25.6616L50 13.1616L87.5 25.6616Z" fill="black"/>
<path d="M88.4883 22.6968L50.9883 10.1968C50.3468 9.98291 49.6532 9.98291 49.0117 10.1968L11.5117 22.6968C10.9445 22.8881 10.4442 23.2383 10.0702 23.7057C9.69631 24.1731 9.46448 24.7381 9.40235 25.3335C9.38401 25.4419 9.37486 25.5517 9.375 25.6616V56.9116C9.375 57.7404 9.70424 58.5353 10.2903 59.1213C10.8763 59.7074 11.6712 60.0366 12.5 60.0366C13.3288 60.0366 14.1237 59.7074 14.7097 59.1213C15.2958 58.5353 15.625 57.7404 15.625 56.9116V29.9975L28.7461 34.3686C25.26 40.0007 24.1514 46.786 25.6638 53.2347C27.1762 59.6834 31.1859 65.2683 36.8125 68.7632C29.7813 71.521 23.7031 76.5093 19.2578 83.3296C19.0266 83.6732 18.866 84.0593 18.7854 84.4655C18.7048 84.8717 18.7057 85.2899 18.7881 85.6958C18.8705 86.1017 19.0327 86.4871 19.2654 86.8297C19.498 87.1723 19.7965 87.4653 20.1434 87.6915C20.4903 87.9178 20.8786 88.0728 21.286 88.1476C21.6933 88.2225 22.1114 88.2156 22.5161 88.1274C22.9207 88.0392 23.3038 87.8714 23.643 87.6339C23.9823 87.3963 24.2709 87.0937 24.4922 86.7436C30.3789 77.7124 39.6758 72.5366 50 72.5366C60.3242 72.5366 69.6211 77.7124 75.5078 86.7436C75.9662 87.4249 76.6742 87.8983 77.4788 88.0617C78.2835 88.225 79.1201 88.0652 79.8078 87.6166C80.4955 87.1681 80.979 86.4669 81.1539 85.6647C81.3287 84.8624 81.1808 84.0236 80.7422 83.3296C76.2969 76.5093 70.1953 71.521 63.1875 68.7632C68.8087 65.2684 72.8146 59.6871 74.3267 53.2432C75.8389 46.7992 74.7338 40.0186 71.2539 34.3882L88.4883 28.646C89.1107 28.4387 89.652 28.0408 90.0356 27.5086C90.4193 26.9765 90.6257 26.3371 90.6257 25.6811C90.6257 25.0251 90.4193 24.3858 90.0356 23.8537C89.652 23.3215 89.1107 22.9236 88.4883 22.7163V22.6968ZM68.75 47.5366C68.7508 50.5009 68.0489 53.4231 66.7016 56.0636C65.3544 58.704 63.4003 60.9874 60.9997 62.7264C58.5991 64.4654 55.8204 65.6105 52.8916 66.0676C49.9628 66.5248 46.9673 66.281 44.151 65.3563C41.3346 64.4316 38.7776 62.8523 36.6898 60.748C34.602 58.6438 33.0428 56.0745 32.1403 53.2509C31.2377 50.4274 31.0175 47.4301 31.4976 44.505C31.9777 41.5798 33.1446 38.8102 34.9023 36.4233L49.0117 41.1108C49.6532 41.3247 50.3468 41.3247 50.9883 41.1108L65.0977 36.4233C67.4718 39.6421 68.7519 43.537 68.75 47.5366ZM50 34.8686L22.3828 25.6616L50 16.4546L77.6172 25.6616L50 34.8686Z" fill="black"/>
</svg>
