<svg width="24" height="24" viewBox="0 0 24 24" fill="none" xmlns="http://www.w3.org/2000/svg">
<path d="M4 3.523C4 2.682 4.682 2 5.523 2H18.477C19.318 2 20 2.682 20 3.523V7C20 9.12173 19.1571 11.1566 17.6569 12.6569C16.1566 14.1571 14.1217 15 12 15C9.87827 15 7.84344 14.1571 6.34315 12.6569C4.84285 11.1566 4 9.12173 4 7V3.523ZM4 20.429C4 19.5196 4.36127 18.6474 5.00433 18.0043C5.64739 17.3613 6.51957 17 7.429 17H16.571C17.0213 17 17.4672 17.0887 17.8832 17.261C18.2992 17.4333 18.6773 17.6859 18.9957 18.0043C19.3141 18.3227 19.5667 18.7008 19.739 19.1168C19.9113 19.5328 20 19.9787 20 20.429C20 21.849 18.849 22 17.429 22H6.57C5.151 22 4 21.849 4 20.429Z" fill="white"/>
</svg>
