<svg width="24" height="24" viewBox="0 0 24 24" fill="none" xmlns="http://www.w3.org/2000/svg">
<path d="M17.5278 1H6.47185C4.95685 1 3.57185 2.856 2.89385 4.211L1.72385 6.551C1.51883 6.96103 1.4609 7.42905 1.55975 7.87669C1.6586 8.32434 1.90823 8.72443 2.26685 9.01L4.60385 10.87C5.63585 9.386 7.27985 8.15 8.99985 7.5L6.68585 4.581C6.60638 4.47428 6.54901 4.35278 6.51709 4.22361C6.48518 4.09444 6.47936 3.9602 6.49998 3.82876C6.5206 3.69731 6.56725 3.5713 6.63718 3.45811C6.70712 3.34492 6.79894 3.24682 6.90727 3.16957C7.0156 3.09231 7.13826 3.03745 7.26806 3.0082C7.39786 2.97895 7.53219 2.9759 7.66318 2.99922C7.79418 3.02255 7.9192 3.07178 8.03093 3.14403C8.14265 3.21628 8.23884 3.3101 8.31385 3.42L9.44385 5H14.5568L15.6868 3.419C15.7616 3.30843 15.8578 3.21394 15.9696 3.14111C16.0815 3.06828 16.2068 3.01859 16.3382 2.99495C16.4695 2.97131 16.6043 2.97422 16.7345 3.00349C16.8648 3.03276 16.9878 3.0878 17.0964 3.16538C17.2051 3.24295 17.297 3.34149 17.367 3.45518C17.4369 3.56887 17.4834 3.69541 17.5037 3.82734C17.5239 3.95927 17.5176 4.09393 17.485 4.22336C17.4524 4.3528 17.3942 4.4744 17.3138 4.581L14.9998 7.5C16.7198 8.149 18.3638 9.385 19.3958 10.87L21.7328 9.01C22.0915 8.72425 22.3411 8.32391 22.4398 7.87605C22.5385 7.42819 22.4802 6.96003 22.2748 6.55L21.1048 4.211C20.4288 2.856 19.0428 1 17.5278 1Z" fill="black"/>
<path fill-rule="evenodd" clip-rule="evenodd" d="M19 16C19 16.9193 18.8189 17.8295 18.4672 18.6788C18.1154 19.5281 17.5998 20.2997 16.9497 20.9497C16.2997 21.5998 15.5281 22.1154 14.6788 22.4672C13.8295 22.8189 12.9193 23 12 23C11.0807 23 10.1705 22.8189 9.32122 22.4672C8.47194 22.1154 7.70026 21.5998 7.05025 20.9497C6.40024 20.2997 5.88463 19.5281 5.53284 18.6788C5.18106 17.8295 5 16.9193 5 16C5 14.1435 5.7375 12.363 7.05025 11.0503C8.36301 9.7375 10.1435 9 12 9C13.8565 9 15.637 9.7375 16.9497 11.0503C18.2625 12.363 19 14.1435 19 16Z" fill="white"/>
</svg>
