<svg width="82" height="82" viewBox="0 0 82 82" fill="none" xmlns="http://www.w3.org/2000/svg">
<path d="M56.625 50.5368C56.625 57.4274 49.6172 63.0368 41 63.0368C32.3828 63.0368 25.375 57.4274 25.375 50.5368C25.375 49.708 25.7043 48.9131 26.2903 48.327C26.8764 47.741 27.6712 47.4118 28.5 47.4118C29.3288 47.4118 30.1237 47.741 30.7097 48.327C31.2958 48.9131 31.625 49.708 31.625 50.5368C31.625 53.9235 35.9219 56.7868 41 56.7868C46.0781 56.7868 50.375 53.9235 50.375 50.5368C50.375 46.8336 47.0117 45.4586 39.875 43.4039C33.7227 41.6305 26.0703 39.4235 26.0703 31.7868C26.0703 24.6618 32.4883 19.2868 41 19.2868C47.1406 19.2868 52.3984 22.1383 54.7188 26.7086C54.919 27.076 55.0434 27.4799 55.0846 27.8963C55.1257 28.3127 55.0829 28.7331 54.9586 29.1326C54.8342 29.5321 54.6309 29.9026 54.3607 30.222C54.0905 30.5415 53.7589 30.8035 53.3856 30.9923C53.0122 31.1812 52.6047 31.2932 52.1873 31.3217C51.7698 31.3502 51.3509 31.2945 50.9554 31.158C50.5599 31.0215 50.1958 30.807 49.8847 30.5272C49.5737 30.2473 49.322 29.9079 49.1446 29.5289C47.8906 27.0758 44.7696 25.5368 41 25.5368C36.0508 25.5368 32.3203 28.2243 32.3203 31.7868C32.3203 34.5211 35.836 35.7321 41.6055 37.3961C47.9453 39.2086 56.625 41.7282 56.625 50.5368ZM81.625 59.9118C81.6188 65.7115 79.3121 71.2719 75.2111 75.3729C71.1101 79.4739 65.5497 81.7806 59.75 81.7868C55.4123 81.8023 51.1702 80.5134 47.5742 78.0875C41.6288 79.1393 35.5174 78.7414 29.7585 76.9274C23.9997 75.1134 18.7634 71.937 14.4941 67.6677C10.2248 63.3983 7.04833 58.1621 5.23437 52.4032C3.4204 46.6444 3.02243 40.533 4.07424 34.5875C1.64834 30.9916 0.359488 26.7494 0.375017 22.4118C0.381221 16.6121 2.68789 11.0517 6.78891 6.95065C10.8899 2.84964 16.4503 0.542964 22.25 0.53676C26.5877 0.521231 30.8299 1.81008 34.4258 4.23598C40.3712 3.18418 46.4827 3.58214 52.2415 5.39611C58.0003 7.21007 63.2366 10.3865 67.5059 14.6558C71.7753 18.9252 74.9517 24.1614 76.7657 29.9203C78.5796 35.6791 78.9776 41.7905 77.9258 47.736C80.3517 51.3319 81.6405 55.5741 81.625 59.9118ZM75.375 59.9118C75.3868 56.4584 74.2428 53.1005 72.125 50.3727C71.8466 50.0125 71.6503 49.5959 71.5498 49.1519C71.4493 48.7079 71.4469 48.2473 71.543 47.8024C72.6493 42.6887 72.4551 37.3791 70.9782 32.3599C69.5013 27.3407 66.7888 22.7721 63.0892 19.0725C59.3897 15.3729 54.8211 12.6605 49.8019 11.1836C44.7826 9.70671 39.4731 9.51251 34.3594 10.6188C33.9144 10.7148 33.4539 10.7125 33.0099 10.612C32.5659 10.5114 32.1493 10.3151 31.7891 10.0368C29.0613 7.91902 25.7033 6.77494 22.25 6.78676C18.106 6.78676 14.1317 8.43296 11.2015 11.3632C8.27122 14.2935 6.62502 18.2678 6.62502 22.4118C6.6132 25.8651 7.75727 29.2231 9.87502 31.9508C10.1534 32.311 10.3497 32.7277 10.4502 33.1716C10.5508 33.6156 10.5531 34.0762 10.457 34.5211C9.35077 39.6348 9.54497 44.9444 11.0219 49.9636C12.4988 54.9828 15.2112 59.5514 18.9108 63.251C22.6104 66.9506 27.1789 69.663 32.1982 71.1399C37.2174 72.6168 42.5269 72.811 47.6406 71.7047C48.0856 71.6087 48.5462 71.611 48.9902 71.7115C49.4341 71.8121 49.8508 72.0084 50.211 72.2868C52.9387 74.4045 56.2967 75.5486 59.75 75.5368C63.894 75.5368 67.8683 73.8906 70.7986 70.9603C73.7288 68.03 75.375 64.0558 75.375 59.9118Z" fill="#0063B0"/>
</svg>
