<svg width="100" height="101" viewBox="0 0 100 101" fill="none" xmlns="http://www.w3.org/2000/svg">
<path d="M88.8887 11.2728H77.778V0.161621H22.2222V11.2728H11.1111C5 11.2728 0 16.2728 0 22.3838V27.9394C0 42.1061 10.6667 53.6616 24.3889 55.3838C27.8889 63.717 35.3889 69.9949 44.4445 71.8283V89.0503H22.2222V100.162H77.778V89.0503H55.5555V71.8283C64.6113 69.9949 72.1113 63.717 75.6113 55.3838C89.3333 53.6616 100 42.1061 100 27.9394V22.3838C100 16.2728 95 11.2728 88.8887 11.2728ZM11.1111 27.9394V22.3838H22.2222V43.6061C15.7778 41.2728 11.1111 35.1616 11.1111 27.9394ZM50 61.2728C40.8333 61.2728 33.3333 53.7728 33.3333 44.6061V11.2728H66.6667V44.6061C66.6667 53.7728 59.1667 61.2728 50 61.2728ZM88.8887 27.9394C88.8887 35.1616 84.222 41.2728 77.778 43.6061V22.3838H88.8887V27.9394Z" fill="#4AAF50"/>
</svg>
