<svg width="32" height="33" viewBox="0 0 32 33" fill="none" xmlns="http://www.w3.org/2000/svg">
<path opacity="0.2" d="M5 6.5C4.73478 6.5 4.48043 6.60536 4.29289 6.79289C4.10536 6.98043 4 7.23478 4 7.5V25.5C4 25.7652 4.10536 26.0196 4.29289 26.2071C4.48043 26.3946 4.73478 26.5 5 26.5H20V6.5H5ZM12 18.5C11.4067 18.5 10.8266 18.3241 10.3333 17.9944C9.83994 17.6648 9.45542 17.1962 9.22836 16.6481C9.0013 16.0999 8.94189 15.4967 9.05764 14.9147C9.1734 14.3328 9.45912 13.7982 9.87868 13.3787C10.2982 12.9591 10.8328 12.6734 11.4147 12.5576C11.9967 12.4419 12.5999 12.5013 13.1481 12.7284C13.6962 12.9554 14.1648 13.3399 14.4944 13.8333C14.8241 14.3266 15 14.9067 15 15.5C15 16.2956 14.6839 17.0587 14.1213 17.6213C13.5587 18.1839 12.7956 18.5 12 18.5Z" fill="black"/>
<path d="M27 5.5H5C4.46957 5.5 3.96086 5.71071 3.58579 6.08579C3.21071 6.46086 3 6.96957 3 7.5V25.5C3 26.0304 3.21071 26.5391 3.58579 26.9142C3.96086 27.2893 4.46957 27.5 5 27.5H27C27.5304 27.5 28.0391 27.2893 28.4142 26.9142C28.7893 26.5391 29 26.0304 29 25.5V7.5C29 6.96957 28.7893 6.46086 28.4142 6.08579C28.0391 5.71071 27.5304 5.5 27 5.5ZM27 15.5H21V7.5H27V15.5ZM5 7.5H19V25.5H5V7.5ZM27 25.5H21V17.5H27V25.5ZM22.5 11.5C22.5 11.2033 22.588 10.9133 22.7528 10.6666C22.9176 10.42 23.1519 10.2277 23.426 10.1142C23.7001 10.0006 24.0017 9.97094 24.2926 10.0288C24.5836 10.0867 24.8509 10.2296 25.0607 10.4393C25.2704 10.6491 25.4133 10.9164 25.4712 11.2074C25.5291 11.4983 25.4993 11.7999 25.3858 12.074C25.2723 12.3481 25.08 12.5824 24.8334 12.7472C24.5867 12.912 24.2967 13 24 13C23.6022 13 23.2206 12.842 22.9393 12.5607C22.658 12.2794 22.5 11.8978 22.5 11.5ZM25.5 21.5C25.5 21.7967 25.412 22.0867 25.2472 22.3334C25.0824 22.58 24.8481 22.7723 24.574 22.8858C24.2999 22.9993 23.9983 23.0291 23.7074 22.9712C23.4164 22.9133 23.1491 22.7704 22.9393 22.5607C22.7296 22.3509 22.5867 22.0836 22.5288 21.7926C22.4709 21.5017 22.5007 21.2001 22.6142 20.926C22.7277 20.6519 22.92 20.4176 23.1666 20.2528C23.4133 20.088 23.7033 20 24 20C24.3978 20 24.7794 20.158 25.0607 20.4393C25.342 20.7206 25.5 21.1022 25.5 21.5ZM16.9688 21.25C16.6452 20.0418 15.8779 19 14.82 18.3325C15.3818 17.774 15.7651 17.0614 15.9214 16.2848C16.0777 15.5082 15.9998 14.7027 15.6978 13.9704C15.3957 13.2381 14.8831 12.612 14.2248 12.1714C13.5664 11.7309 12.7921 11.4957 12 11.4957C11.2079 11.4957 10.4336 11.7309 9.77525 12.1714C9.11693 12.612 8.60426 13.2381 8.30221 13.9704C8.00016 14.7027 7.92234 15.5082 8.07861 16.2848C8.23488 17.0614 8.61821 17.774 9.18 18.3325C8.12282 19.0007 7.35575 20.0422 7.03125 21.25C6.96495 21.5069 7.00342 21.7797 7.13821 22.0082C7.27301 22.2368 7.49307 22.4024 7.75 22.4688C8.00693 22.5351 8.27967 22.4966 8.50823 22.3618C8.73679 22.227 8.90245 22.0069 8.96875 21.75C9.29875 20.4688 10.6013 19.5 12 19.5C13.3988 19.5 14.7025 20.4662 15.0312 21.75C15.0976 22.0069 15.2632 22.227 15.4918 22.3618C15.7203 22.4966 15.9931 22.5351 16.25 22.4688C16.5069 22.4024 16.727 22.2368 16.8618 22.0082C16.9966 21.7797 17.0351 21.5069 16.9688 21.25ZM10 15.5C10 15.1044 10.1173 14.7178 10.3371 14.3889C10.5568 14.06 10.8692 13.8036 11.2346 13.6522C11.6001 13.5009 12.0022 13.4613 12.3902 13.5384C12.7781 13.6156 13.1345 13.8061 13.4142 14.0858C13.6939 14.3655 13.8844 14.7219 13.9616 15.1098C14.0387 15.4978 13.9991 15.8999 13.8478 16.2654C13.6964 16.6308 13.44 16.9432 13.1111 17.1629C12.7822 17.3827 12.3956 17.5 12 17.5C11.4696 17.5 10.9609 17.2893 10.5858 16.9142C10.2107 16.5391 10 16.0304 10 15.5Z" fill="#A5DBE2"/>
</svg>
